<?xml version="1.0" standalone="no"?>
<!DOCTYPE svg PUBLIC "-//W3C//DTD SVG 1.1//EN" "http://www.w3.org/Graphics/SVG/1.1/DTD/svg11.dtd" >
<svg xmlns="http://www.w3.org/2000/svg">
<metadata></metadata>
<defs>
<font id="theinhardt_mediumregular" horiz-adv-x="1208" >
<font-face units-per-em="2048" ascent="1642" descent="-406" />
<missing-glyph horiz-adv-x="409" />
<glyph unicode="&#xfb01;" horiz-adv-x="1183" d="M41 793v182h172v115q0 66 7 106.5t22 75.5q31 72 99.5 103.5t184.5 31.5q51 0 89 -3t65 -7v-189q-20 2 -37.5 3t-46.5 1q-51 0 -82 -8t-47 -30q-20 -29 -21 -103v-96h234v-182h-234v-793h-233v793h-172zM821 0v973h234v-973h-234zM821 1155v238h234v-238h-234z" />
<glyph unicode="&#xfb02;" horiz-adv-x="1191" d="M41 793v182h172v115q0 66 7 106.5t22 75.5q31 72 99.5 103.5t184.5 31.5q51 0 89 -3t65 -7v-189q-20 2 -37.5 3t-46.5 1q-51 0 -82 -8t-47 -30q-20 -29 -21 -103v-96h234v-182h-234v-793h-233v793h-172zM821 0v1393h234v-1393h-234z" />
<glyph horiz-adv-x="0" />
<glyph horiz-adv-x="682" />
<glyph horiz-adv-x="0" />
<glyph horiz-adv-x="0" />
<glyph unicode="&#xd;" horiz-adv-x="1683" d="M72 487l485 486h291l-402 -383h871v383h233v-588h-1104l402 -385h-291z" />
<glyph unicode=" "  horiz-adv-x="409" />
<glyph unicode="&#x09;" horiz-adv-x="409" />
<glyph unicode="&#xa0;" horiz-adv-x="409" />
<glyph unicode="!" horiz-adv-x="518" d="M133 0v260h250v-260h-250zM143 758v635h232v-635l-25 -402h-178z" />
<glyph unicode="&#x22;" horiz-adv-x="811" d="M104 1229v164h238v-164l-45 -436h-154zM471 1229v164h238v-164l-45 -436h-154z" />
<glyph unicode="#" horiz-adv-x="1380" d="M68 365v204h299l28 193h-282v207h317l68 424h207l-70 -424h190l68 424h207l-70 -424h281v-207h-314l-30 -193h299v-204h-330l-59 -365h-207l59 365h-188l-60 -365h-207l60 365h-266zM571 569h191l29 193h-189z" />
<glyph unicode="$" horiz-adv-x="1263" d="M55 272l201 144q35 -59 107.5 -113.5t173.5 -79.5v379l-15 4q-84 18 -158.5 47t-130 73t-88 109.5t-32.5 157.5q0 80 31.5 147.5t89 119t134 84t169.5 45.5v198h215v-203q78 -12 141 -35.5t114.5 -54t88.5 -63.5t63 -60l-182 -147q-41 49 -97.5 87t-127.5 58v-370h6 q94 -23 175 -50.5t139 -70.5t91 -106.5t33 -155.5q0 -170 -116.5 -280.5t-327.5 -133.5v-205h-215v207q-88 12 -163 39t-135.5 63.5t-106.5 79.5t-77 86zM373 1006q0 -66 39 -101t125 -57v330q-78 -16 -121 -62.5t-43 -109.5zM752 215q92 16 139 63t47 113q0 70 -50 105.5 t-136 58.5v-340z" />
<glyph unicode="%" horiz-adv-x="1871" d="M63 965q0 80 15.5 159.5t52.5 145t101.5 106.5t162.5 41q102 0 166 -43t99.5 -108.5t48 -146t12.5 -154.5q0 -84 -18.5 -161t-58.5 -136.5t-102.5 -95t-150.5 -35.5q-92 0 -154.5 35.5t-101.5 96t-55.5 137.5t-16.5 159zM270 977q0 -53 6.5 -100.5t20.5 -82t37.5 -54 t58.5 -19.5q72 0 99.5 68t27.5 174q0 125 -30.5 196.5t-96.5 71.5t-94.5 -72t-28.5 -182zM446 0l732 1393h215l-725 -1393h-222zM1151 414q0 80 15.5 159.5t52 145t101 106.5t163.5 41q102 0 165.5 -43t99.5 -108.5t48 -146t12 -154.5q0 -84 -18 -161t-58 -136.5t-102.5 -95 t-150.5 -35.5q-92 0 -154.5 35.5t-101.5 96t-55.5 137.5t-16.5 159zM1358 426q0 -53 6 -100t20.5 -82t38 -54.5t58.5 -19.5q72 0 99.5 68t27.5 174q0 125 -31 196.5t-96 71.5q-66 0 -94.5 -71.5t-28.5 -182.5z" />
<glyph unicode="&#x26;" horiz-adv-x="1345" d="M94 389q0 80 24.5 142.5t66.5 111.5t97.5 88t114.5 72q-47 59 -87 131t-40 172q0 61 23.5 118.5t70 101.5t113 70.5t152.5 26.5q88 0 154.5 -24.5t110.5 -65.5t66.5 -95t22.5 -116q0 -123 -65.5 -210t-182.5 -154l189 -223q14 43 22 95t19 113l219 -57q-14 -98 -37 -181 t-57 -163l284 -342h-305l-119 147q-84 -92 -182 -132t-223 -40q-96 0 -179 28t-143.5 80t-94.5 129t-34 177zM326 397q0 -51 19.5 -90t51 -64.5t74.5 -39t90 -13.5q72 0 138.5 31t109.5 88l-279 338q-41 -25 -78.5 -50.5t-65.5 -56t-44 -65.5t-16 -78zM504 1112 q0 -53 32.5 -100.5t71.5 -98.5q66 37 104 88.5t38 106.5q0 53 -35 85t-88 32q-55 0 -89 -31t-34 -82z" />
<glyph unicode="'" horiz-adv-x="444" d="M104 1229v164h238v-164l-45 -436h-154z" />
<glyph unicode="(" horiz-adv-x="583" d="M82 535q0 227 63.5 452t180.5 426l221 -27q-115 -209 -175.5 -415.5t-60.5 -417.5t60.5 -433t183.5 -444l-215 -26q-127 211 -192.5 427t-65.5 458z" />
<glyph unicode=")" horiz-adv-x="583" d="M29 -324q123 221 183 443.5t60 433.5t-60 418t-175 415l221 27q117 -201 180.5 -426t63.5 -452q0 -242 -65.5 -458t-192.5 -427z" />
<glyph unicode="*" horiz-adv-x="995" d="M66 999l69 207l264 -100l-10 287h217l-10 -287l264 100l70 -207l-262 -81l180 -226l-174 -119l-176 226l-176 -226l-177 119l187 228z" />
<glyph unicode="+" horiz-adv-x="1339" d="M63 504v217h498v502h219v-502h496v-217h-496v-504h-219v504h-498z" />
<glyph unicode="," horiz-adv-x="493" d="M115 0v268h264v-209q0 -29 -1 -60.5t-3 -55.5q-6 -55 -20.5 -100.5t-43 -77t-77 -49t-119.5 -19.5v133q57 4 86.5 32.5t29.5 112.5v25h-116z" />
<glyph unicode="-" horiz-adv-x="833" d="M125 438v221h584v-221h-584z" />
<glyph unicode="." horiz-adv-x="489" d="M113 0v270h264v-270h-264z" />
<glyph unicode="/" horiz-adv-x="1062" d="M45 0l735 1393h238l-733 -1393h-240z" />
<glyph unicode="0" d="M72 690q0 125 26.5 255t89 234.5t166 171t254.5 66.5q145 0 245.5 -61.5t164 -162.5t91.5 -232.5t28 -270.5q0 -133 -25 -261t-85 -229.5t-161.5 -163t-257.5 -61.5q-147 0 -249.5 56.5t-166 154t-92 227.5t-28.5 277zM330 686q0 -88 12 -176t44 -157.5t86 -112.5 t136 -43t135.5 43t84 112.5t42 157.5t11.5 176q0 90 -12.5 181t-43 164t-83 119t-134.5 46t-136 -46t-86 -119t-44 -164t-12 -181z" />
<glyph unicode="1" d="M236 909v187h73q84 0 140.5 15t97.5 44q100 74 106 238h201v-1393h-236v909h-382z" />
<glyph unicode="2" d="M98 0v190q43 29 86 60t93.5 69.5t111 90t135.5 118.5q66 57 120 108.5t92 103t59.5 107.5t21.5 124q0 106 -61.5 169.5t-167.5 63.5q-59 0 -102.5 -20.5t-71 -56t-42 -82t-14.5 -95.5q0 -68 23 -135l-240 33q-10 29 -17 63.5t-7 83.5q0 92 34.5 169t99 133.5t156 88 t201.5 31.5q106 0 192.5 -30.5t148 -88t94 -136.5t32.5 -177q0 -119 -49 -220t-127 -190.5t-172 -167t-186 -145.5l-64 -49v-2h55q29 0 69 1t93 1h414v-213h-1010z" />
<glyph unicode="3" d="M88 410l246 34q14 -125 75.5 -195.5t182.5 -70.5q68 0 115 20.5t76.5 54.5t44 76t14.5 85q0 156 -156 202q-37 10 -81 12.5t-93 2.5h-92v198h112q41 0 75 2.5t63 10.5q72 18 107.5 68.5t35.5 115.5q0 37 -13.5 73t-40 62.5t-69.5 43t-100 16.5q-68 0 -114 -23.5 t-73.5 -58.5t-40 -77t-14.5 -79l-223 37q2 80 32.5 152.5t91 127t148.5 86t205 31.5q111 0 195 -26.5t142 -73.5t88 -112.5t30 -141.5q0 -63 -18.5 -113.5t-49.5 -89.5t-69.5 -67.5t-77.5 -47.5q43 -16 89 -41.5t83 -66.5t60.5 -100.5t23.5 -139.5q0 -90 -34 -166.5 t-98.5 -134t-157.5 -89.5t-214 -32q-125 0 -216 32t-152.5 88.5t-95.5 136t-42 178.5z" />
<glyph unicode="4" d="M53 305v182l635 906h236v-885h219v-203h-219v-305h-232v305h-639zM311 508h381v211q0 43 1 98t3 109.5t4 101.5t5 76h-3q-23 -47 -71.5 -128t-114.5 -177z" />
<glyph unicode="5" d="M96 336l242 63q18 -92 82.5 -153.5t173.5 -61.5q133 0 194.5 81t61.5 208q0 123 -62.5 204t-195.5 81q-100 0 -161.5 -53.5t-84.5 -139.5l-219 49l106 779h805l-20 -217h-596l-49 -314q10 12 33.5 27.5t58.5 31t82 25.5t104 10q102 0 186.5 -32.5t144.5 -93t93 -147.5 t33 -198q0 -104 -32 -197t-95 -163t-159.5 -110t-225.5 -40q-197 0 -331 94.5t-169 266.5z" />
<glyph unicode="6" d="M88 680q0 174 35 311t104.5 231.5t171 144.5t234.5 50q111 0 192.5 -30.5t138 -83t89 -122t49.5 -145.5l-236 -49q-8 33 -24.5 72t-45 72.5t-71.5 56t-102 22.5q-68 0 -119 -33.5t-85 -89t-51.5 -128t-19.5 -150.5q18 18 47 39.5t69 39t89 30t111 12.5q92 0 174 -28 t145.5 -84t100 -140t36.5 -197q0 -115 -34.5 -208t-100 -159.5t-160 -102.5t-211.5 -36q-123 0 -220 42t-164.5 129t-104.5 219.5t-37 314.5zM352 580q0 -61 12.5 -131t43 -128.5t81 -96.5t125.5 -38q111 0 178.5 76t67.5 205q0 115 -64.5 181.5t-181.5 66.5 q-51 0 -94 -14.5t-76.5 -35t-57.5 -44t-34 -41.5z" />
<glyph unicode="7" d="M92 913v480h1063v-201q-211 -260 -339 -561t-171 -631h-272q16 98 42.5 197.5t61.5 201.5q72 211 173.5 403.5t223.5 373.5h-550v-263h-232z" />
<glyph unicode="8" d="M84 387q0 123 61.5 204t176.5 124q-39 18 -75 43.5t-63.5 64.5t-44 90.5t-16.5 118.5q0 82 32.5 152.5t95 123t152 81t201.5 28.5q113 0 202 -28.5t151.5 -81t95 -123t32.5 -152.5q0 -68 -16 -119t-44 -90t-63.5 -64.5t-74.5 -43.5q115 -43 176 -124t61 -204 q0 -193 -138 -302.5t-382 -109.5t-382 110t-138 302zM332 408q0 -98 73.5 -158t198.5 -60q123 0 198 54.5t75 165.5q0 94 -72 151t-201 57q-131 0 -201.5 -58t-70.5 -152zM360 1014q0 -37 14.5 -73t45.5 -65.5t77 -47t107 -17.5t107.5 17.5t77 47t45 65.5t14.5 73 q0 39 -14.5 73.5t-43 62.5t-76 44t-110.5 16q-66 0 -112 -16t-74.5 -44t-43 -62.5t-14.5 -73.5z" />
<glyph unicode="9" d="M88 911q0 115 35 208t100.5 160t159.5 102.5t211 35.5q123 0 220 -42t165 -129t104.5 -220t36.5 -313q0 -174 -34.5 -311.5t-104.5 -231.5t-171 -144.5t-235 -50.5q-111 0 -192.5 31t-138 83t-90 121t-48.5 146l236 50q8 -33 24.5 -72t45 -72t71.5 -55.5t103 -22.5 q68 0 119 34t84.5 89t51 127t19.5 150q-18 -18 -47 -40t-68.5 -39.5t-89 -29.5t-110.5 -12q-92 0 -174 27.5t-145.5 84t-100.5 140.5t-37 196zM348 928q0 -115 64.5 -181.5t181.5 -66.5q51 0 94 14.5t77 35t57.5 44t33.5 41.5q0 61 -12.5 130t-43 127t-80.5 97t-126 39 q-111 0 -178.5 -75.5t-67.5 -204.5z" />
<glyph unicode=":" horiz-adv-x="520" d="M129 0v270h264v-270h-264zM129 705v270h264v-270h-264z" />
<glyph unicode=";" horiz-adv-x="524" d="M129 0v268h264v-209q0 -29 -1 -60.5t-3 -55.5q-6 -55 -20.5 -100.5t-43 -77t-76.5 -49t-120 -19.5v133q57 4 87 32.5t30 112.5v25h-117zM129 705v270h264v-270h-264z" />
<glyph unicode="&#x3c;" horiz-adv-x="1466" d="M57 598v180l1311 647v-225l-1022 -508l1022 -520v-225z" />
<glyph unicode="=" horiz-adv-x="1660" d="M141 340v180h1381v-180h-1381zM141 680v180h1381v-180h-1381z" />
<glyph unicode="&#x3e;" horiz-adv-x="1466" d="M98 -53v225l1022 520l-1022 508v225l1311 -647v-180z" />
<glyph unicode="?" horiz-adv-x="1011" d="M61 1020q0 80 30 151.5t86 127t139 87t188 31.5q117 0 200.5 -32.5t139 -88t81 -127t25.5 -149.5q0 -106 -46 -195.5t-134 -165.5l-68 -55q-35 -31 -58 -53.5t-37.5 -45t-20.5 -48t-6 -58.5v-65h-222v78q0 47 5.5 87t21.5 76.5t44 72.5t75 73l86 72q59 47 83.5 104 t24.5 121q0 84 -50 137t-148 53q-100 0 -150.5 -56t-50.5 -142q0 -55 19.5 -111.5t50.5 -105.5l-265 38q-23 41 -33 89.5t-10 99.5zM348 0v256h242v-256h-242z" />
<glyph unicode="@" horiz-adv-x="1699" d="M80 453q0 164 56.5 309t163 254.5t257 173t338.5 63.5q186 0 322.5 -61.5t224.5 -159.5t131 -222t43 -249q0 -109 -21.5 -206t-66.5 -169.5t-117 -114.5t-172 -42q-74 0 -130 24.5t-67 67.5h-2q-12 -12 -32.5 -28.5t-50 -30t-71.5 -23.5t-98 -10q-57 0 -111 15t-95 48 t-67 83t-26 122q0 63 21.5 108.5t61.5 76t94.5 49t121.5 30.5l185 33q35 6 45 14t10 33v12q0 106 -151 107q-174 0 -172 -148l-189 11q0 78 28.5 133t79 91t118 52t143.5 16q72 0 133 -13t105 -42t70 -78t26 -118v-408q0 -78 61 -78q41 0 72.5 30t53 79t33 113.5t11.5 136.5 q0 104 -30.5 205.5t-98.5 181.5t-173.5 128t-252.5 48q-158 0 -276.5 -55.5t-197.5 -145.5t-119 -205.5t-40 -236.5q0 -158 51.5 -280t138.5 -206t204.5 -128t250.5 -44q170 0 316.5 65.5t269.5 207.5l88 -131q-137 -150 -312 -221.5t-370 -71.5q-168 0 -316.5 50 t-260 150.5t-177 252t-65.5 352.5zM692 303q0 -59 41 -88t107 -29q59 0 104 21.5t66 66.5q8 14 12 32t4 50v101q-23 -10 -68 -18.5t-84 -18.5q-82 -16 -132 -37t-50 -80z" />
<glyph unicode="A" horiz-adv-x="1259" d="M8 0l484 1393h278l479 -1393h-264l-106 315h-506l-109 -315h-256zM442 535h365l-129 423q-16 49 -28.5 93.5t-22.5 85.5h-2q-10 -39 -22.5 -82t-29.5 -92z" />
<glyph unicode="B" horiz-adv-x="1327" d="M156 0v1393h546q66 0 114 -3.5t84 -10.5t63.5 -16t52.5 -22q84 -41 133 -120.5t49 -190.5q0 -106 -53 -182t-131 -111q96 -39 163.5 -124t67.5 -216q0 -117 -51 -204t-139 -134q-25 -14 -53.5 -25t-65.5 -18.5t-86 -11.5t-117 -4h-577zM401 217h293q90 0 138.5 7t82.5 28 q37 23 60.5 65.5t23.5 102.5q0 59 -23.5 102t-60.5 66t-86 29t-135 6h-293v-406zM401 821h283q47 0 101.5 3t95.5 28q35 23 55 60.5t20 88.5q0 53 -26.5 94.5t-67.5 59.5q-29 14 -66.5 19.5t-111.5 5.5h-283v-359z" />
<glyph unicode="C" horiz-adv-x="1363" d="M84 696q0 160 46 292t132 227.5t209 148.5t277 53q121 0 213 -32.5t159.5 -82t111.5 -104.5t71 -100l-216 -133q-51 111 -134 171t-205 60q-92 0 -165 -36t-124 -100.5t-78 -157.5t-27 -206q0 -227 102.5 -360t291.5 -133q119 0 202.5 56t132.5 159l234 -99 q-25 -49 -68 -108t-112.5 -111.5t-164.5 -88.5t-224 -36q-160 0 -284 53.5t-209 148.5t-128 227.5t-43 291.5z" />
<glyph unicode="D" horiz-adv-x="1400" d="M156 0v1393h389q84 0 154.5 -2t131 -11.5t114.5 -29t108 -56.5q115 -84 187.5 -236.5t72.5 -357.5q0 -176 -52.5 -319t-150.5 -236q-55 -55 -115.5 -83.5t-129 -43t-148.5 -16.5t-178 -2h-383zM403 223h162q117 0 206 11.5t155 72.5q49 51 87 153.5t38 231.5t-36 229.5 t-108 161.5q-61 53 -146 67.5t-222 14.5h-136v-942z" />
<glyph unicode="E" horiz-adv-x="1253" d="M156 0v1393h974v-219h-729v-345h662v-219h-662v-391h781v-219h-1026z" />
<glyph unicode="F" horiz-adv-x="1122" d="M156 0v1393h897v-219h-652v-363h625v-219h-625v-592h-245z" />
<glyph unicode="G" horiz-adv-x="1433" d="M84 696q0 160 47 292t134 227.5t210 148.5t277 53q121 0 213 -32.5t159.5 -82t111.5 -104.5t71 -100l-215 -133q-51 111 -134.5 171t-205.5 60q-92 0 -166 -36t-125 -100.5t-79 -157.5t-28 -206q0 -115 28 -207t79 -157.5t124.5 -101t166.5 -35.5q88 0 150.5 24.5 t104.5 68.5t63.5 107.5t25.5 143.5h-418v223h647v-762h-233v106q-59 -53 -154.5 -92t-212.5 -39q-152 0 -270.5 53.5t-201.5 148.5t-126 227t-43 292z" />
<glyph unicode="H" horiz-adv-x="1425" d="M156 0v1393h245v-564h623v564h246v-1393h-250l4 610h-623v-610h-245z" />
<glyph unicode="I" horiz-adv-x="557" d="M156 0v1393h245v-1393h-245z" />
<glyph unicode="J" horiz-adv-x="776" d="M37 -2v219q55 -12 123 -12q66 0 107.5 14t66.5 41q29 35 39 85t10 142v906h246v-969q0 -86 -9.5 -161t-50.5 -132q-29 -39 -69.5 -66.5t-91 -46t-105.5 -26.5t-110 -8q-39 0 -78 2t-78 12z" />
<glyph unicode="K" horiz-adv-x="1353" d="M156 0v1393h245v-629l609 629h331l-567 -576l580 -817h-314l-450 637l-189 -186v-451h-245z" />
<glyph unicode="L" horiz-adv-x="1030" d="M156 0v1393h247v-1168h598v-225h-845z" />
<glyph unicode="M" horiz-adv-x="1638" d="M156 0v1393h366l221 -770q29 -98 48.5 -171t27.5 -120h4q10 41 33 123t45 170l209 768h373v-1393h-240v590q0 74 1 149.5t4 146t5 132t7 104.5h-5q-10 -45 -27.5 -112.5t-43.5 -159.5l-244 -850h-246l-243 846q-31 109 -48 176q-8 37 -16 68h-4q4 -49 8 -176.5t4 -323.5 v-590h-239z" />
<glyph unicode="N" horiz-adv-x="1417" d="M156 0v1393h229l530 -797q12 -18 27.5 -43t31 -49.5t29 -45t19.5 -32.5q0 16 -1 69.5t-1 124t-1 151.5t-1 155v467h244v-1393h-230l-549 838q-16 25 -31.5 50t-27.5 45.5t-20 34.5l-9 13q0 -25 1 -76t2 -119.5t1 -150.5v-170v-465h-243z" />
<glyph unicode="O" horiz-adv-x="1486" d="M84 696q0 160 46 292t132 227.5t208 148.5t273 53q152 0 274 -53t208 -148.5t132 -227.5t46 -292t-43 -292t-127 -227t-207 -148.5t-283 -53.5q-158 0 -280.5 53.5t-206.5 148.5t-128 227t-44 292zM352 696q0 -115 27 -206t77 -156.5t122.5 -100t164.5 -34.5t165 34.5 t123 100t77 157t27 205.5q0 113 -27 206t-78 158.5t-122.5 101.5t-164.5 36q-92 0 -163.5 -36t-122.5 -101.5t-78 -158.5t-27 -206z" />
<glyph unicode="P" horiz-adv-x="1249" d="M156 0v1393h465q129 0 245.5 -16.5t200.5 -88.5q66 -55 101.5 -137t35.5 -180t-35.5 -183.5t-101.5 -140.5q-84 -72 -200.5 -88t-245.5 -16h-220v-543h-245zM401 764h254q74 0 119 6t76 21q47 23 73.5 71.5t26.5 108.5q0 59 -26.5 107t-73.5 71q-31 14 -76 20.5t-119 6.5 h-254v-412z" />
<glyph unicode="Q" horiz-adv-x="1505" d="M84 696q0 160 46 292t132 227.5t208 148.5t273 53q152 0 274 -53t208 -148.5t132 -227.5t46 -292q0 -244 -100 -422l157 -153l-180 -178l-143 147q-78 -55 -176.5 -85t-217.5 -30q-158 0 -280.5 53.5t-206.5 148.5t-128 227t-44 292zM352 696q0 -115 27 -206t77 -156.5 t122.5 -100t164.5 -34.5t165 34.5t123 100t77 157t27 205.5q0 113 -27 206t-78 158.5t-122.5 101.5t-164.5 36q-92 0 -163.5 -36t-122.5 -101.5t-78 -158.5t-27 -206z" />
<glyph unicode="R" horiz-adv-x="1318" d="M156 0v1393h510q90 0 180 -8.5t170 -55.5q92 -53 145 -140t53 -216q0 -117 -49 -201t-135 -141q-25 -16 -54.5 -27.5t-53.5 -21.5l348 -582h-293l-324 557h-252v-557h-245zM401 778h265q76 0 119.5 6.5t76.5 20.5q47 23 73 70t26 104t-26 103t-73 67q-33 14 -77 20.5 t-119 6.5h-265v-398z" />
<glyph unicode="S" horiz-adv-x="1273" d="M43 260l205 148q25 -39 64.5 -77t93 -69t118 -49t138.5 -18q141 0 211.5 52t70.5 136q0 82 -65.5 120t-171.5 60l-187 41q-86 18 -161.5 47t-132 76t-90.5 113.5t-34 163.5q0 92 41 168.5t112 131t167 84t207 29.5q109 0 194.5 -23.5t152 -58.5t115 -75.5t78.5 -73.5 l-186 -152q-59 72 -151.5 120t-208.5 48q-123 0 -189.5 -53t-66.5 -133q0 -78 53 -114t172 -62l168 -37q98 -23 180 -51.5t141.5 -73.5t93 -111.5t33.5 -160.5q0 -96 -39 -176t-110.5 -136.5t-175 -87.5t-234.5 -31q-115 0 -210 26t-170.5 67t-132 91t-93.5 101z" />
<glyph unicode="T" horiz-adv-x="1136" d="M39 1174v219h1059v-219h-406v-1174h-246v1174h-407z" />
<glyph unicode="U" horiz-adv-x="1368" d="M143 578v815h244v-811q0 -102 7 -151.5t24 -84.5q33 -76 100.5 -109.5t165.5 -33.5t166 33.5t100 109.5q16 35 23.5 84t7.5 152v811h244v-815q0 -76 -4 -133.5t-12.5 -102.5t-23 -81t-32.5 -68q-70 -115 -192.5 -166.5t-276.5 -51.5t-276.5 51.5t-192.5 166.5 q-18 33 -32.5 68.5t-22.5 80.5t-12.5 102.5t-4.5 133.5z" />
<glyph unicode="V" horiz-adv-x="1216" d="M20 1393h259l282 -938q8 -27 16.5 -57.5t14.5 -58.5t10 -47.5t4 -21.5l53 185l291 938h254l-450 -1393h-301z" />
<glyph unicode="W" horiz-adv-x="1773" d="M49 1393h262l172 -912q6 -31 11.5 -64.5t10.5 -63t9 -47.5l4 -19q8 33 19.5 91t21.5 103l191 912h274l193 -914q6 -25 12 -53.5t11 -57t9 -53t4 -39.5l39 216l183 901h254l-310 -1393h-319l-162 729q-10 45 -18.5 95t-15.5 93.5t-11 70.5l-4 28q-12 -51 -21 -103 q-10 -43 -18 -94t-19 -92l-155 -727h-324z" />
<glyph unicode="X" horiz-adv-x="1320" d="M0 0l514 709l-494 684h310l342 -494l338 494h295l-496 -666l510 -727h-299l-363 535l-376 -535h-281z" />
<glyph unicode="Y" horiz-adv-x="1273" d="M4 1393h285l356 -596l363 596h282l-534 -824v-569h-246v569z" />
<glyph unicode="Z" horiz-adv-x="1189" d="M63 0v203l738 968h-703v222h1010v-201l-733 -969h737v-223h-1049z" />
<glyph unicode="[" horiz-adv-x="626" d="M139 -326v1719h422v-174h-190v-1369h190v-176h-422z" />
<glyph unicode="\" horiz-adv-x="1067" d="M45 1393h238l739 -1393h-240z" />
<glyph unicode="]" horiz-adv-x="626" d="M66 -150h190v1369h-190v174h421v-1719h-421v176z" />
<glyph unicode="^" horiz-adv-x="923" d="M8 668l361 725h182l348 -725h-244l-198 432l-199 -432h-250z" />
<glyph unicode="_" horiz-adv-x="1492" d="M199 -135h1095v-205h-1095v205z" />
<glyph unicode="`" horiz-adv-x="1024" d="M289 1393h276l131 -263h-200z" />
<glyph unicode="a" horiz-adv-x="1062" d="M76 281q0 55 14 97t41 75q45 53 119 84.5t170 48.5l215 37q39 8 50 15t11 36v16q0 61 -41 92t-133 31q-196 0 -196 -165v-5l-220 14v10q0 83 32 143q34 64 92.5 105t136 59.5t165.5 18.5q84 0 155 -14t123 -48t81 -89.5t29 -134.5v-484q0 -47 11 -64.5t52 -17.5h12v-153 q-10 -2 -34.5 -6.5t-75.5 -4.5q-68 0 -113 21.5t-59 79.5h-2q-14 -16 -37 -34.5t-57.5 -34t-83 -26t-113.5 -10.5q-72 0 -134.5 18.5t-108.5 55.5t-73.5 95.5t-27.5 138.5zM313 283q0 -59 41 -96t127 -37q96 0 155.5 48t59.5 148v119q-27 -10 -53.5 -17.5t-79.5 -17.5 l-90 -18q-84 -16 -122 -43t-38 -86z" />
<glyph unicode="b" horiz-adv-x="1155" d="M129 0v1393h233v-525q41 53 116 92t171 39q98 0 178 -37.5t136.5 -106.5t87 -164t30.5 -208q0 -111 -30.5 -204t-88 -160.5t-136.5 -105.5t-177 -38t-168.5 35t-118.5 92v-102h-233zM352 487q0 -141 68.5 -225t179.5 -84q113 0 180.5 82t67.5 227q0 147 -67.5 229.5 t-180.5 82.5q-111 0 -179.5 -85.5t-68.5 -226.5z" />
<glyph unicode="c" horiz-adv-x="1034" d="M74 483q0 123 36.5 218.5t101 162t153 100t188.5 33.5q86 0 154.5 -21.5t122 -58t91 -87t60.5 -107.5l-195 -102q-27 78 -82 127t-145 49q-117 0 -185.5 -81t-68.5 -229q0 -147 68.5 -228t185.5 -81q100 0 153.5 50.5t80.5 115.5l188 -100q-16 -39 -50 -86t-87 -87 t-125 -68t-166 -28q-106 0 -194.5 33t-152 97.5t-98 159.5t-34.5 218z" />
<glyph unicode="d" horiz-adv-x="1155" d="M74 483q0 113 30.5 208t87 164t136.5 106.5t178 37.5q96 0 171 -38.5t116 -92.5v525h233v-1393h-233v102q-47 -57 -118 -92t-169 -35t-177 38t-136.5 105.5t-88 161t-30.5 203.5zM307 487q0 -145 67.5 -227t180.5 -82q111 0 179.5 84t68.5 225t-68.5 226.5t-179.5 85.5 q-113 0 -180.5 -82t-67.5 -230z" />
<glyph unicode="e" horiz-adv-x="1087" d="M74 496q0 113 36.5 205t101 158.5t152 102t189.5 35.5q117 0 204 -37.5t143 -106.5t85 -163t29 -207q0 -12 -1 -29.5t-1 -29.5h-711q6 -49 24.5 -94t52.5 -79t81 -54.5t112 -20.5q66 0 115 19.5t83 46t54.5 55.5t32.5 47l162 -123q-16 -25 -50 -66.5t-89.5 -81.5 t-134 -69t-185.5 -29q-109 0 -198 37t-153.5 104.5t-99 164t-34.5 215.5zM307 598h475q-4 96 -67.5 154.5t-161.5 58.5q-49 0 -93 -16.5t-77 -46t-53.5 -68.5t-22.5 -82z" />
<glyph unicode="f" horiz-adv-x="716" d="M41 793v182h172v115q0 66 7 106.5t22 75.5q31 72 99.5 103.5t184.5 31.5q51 0 89 -3t65 -7v-189q-20 2 -37.5 3t-46.5 1q-51 0 -82 -8t-47 -30q-20 -29 -21 -103v-96h234v-182h-234v-793h-233v793h-172z" />
<glyph unicode="g" horiz-adv-x="1155" d="M76 485q0 115 28.5 210.5t84 163t135 104t180.5 36.5q102 0 176 -38.5t115 -92.5v107h233v-920q0 -78 -7 -132t-24 -101q-47 -123 -158.5 -175.5t-291.5 -52.5q-221 0 -331 91.5t-116 248.5l236 19q4 -35 15 -66.5t36 -56.5t65 -39t103 -14q133 0 186.5 58.5t53.5 197.5 v88h-2q-12 -16 -35 -38t-56.5 -41t-83 -32.5t-112.5 -13.5q-98 0 -178 35t-136.5 98.5t-86 154.5t-29.5 201zM309 494q0 -147 64.5 -224t183.5 -77q117 0 182.5 80t65.5 221t-65.5 223t-182.5 82q-119 0 -183.5 -79t-64.5 -226z" />
<glyph unicode="h" horiz-adv-x="1118" d="M129 0v1393h233v-543q35 66 114 107.5t190 41.5q84 0 151.5 -27.5t116.5 -92.5q16 -25 28.5 -51.5t20.5 -64.5t12 -89t4 -121v-553h-233v494q0 55 -3 102t-13 84q-16 53 -56.5 83t-115.5 30q-111 0 -163.5 -76t-52.5 -195v-522h-233z" />
<glyph unicode="i" horiz-adv-x="491" d="M129 0v975h233v-975h-233zM129 1155v238h233v-238h-233z" />
<glyph unicode="j" horiz-adv-x="491" d="M-29 -213q33 2 61.5 5t50 14.5t34 34t12.5 63.5v1071h233v-1071q0 -82 -4 -116t-14 -60q-18 -45 -53 -73t-77 -42t-89 -18.5t-90 -4.5h-27.5t-36.5 2v195zM129 1155v238h233v-238h-233z" />
<glyph unicode="k" horiz-adv-x="1095" d="M129 0v1393h233v-818l394 400h301l-385 -379l420 -596h-291l-295 436l-144 -131v-305h-233z" />
<glyph unicode="l" horiz-adv-x="507" d="M137 0v1393h234v-1393h-234z" />
<glyph unicode="m" horiz-adv-x="1746" d="M129 0v975h233v-125q35 61 112 105t194 44q155 0 241 -94q12 -14 21.5 -27.5t19.5 -29.5q23 27 52.5 54.5t70.5 49t93.5 34.5t117.5 13q94 0 156.5 -25.5t101.5 -68.5q23 -27 39 -54.5t26.5 -67.5t15.5 -95t5 -135v-553h-233v494q0 66 -5.5 121t-23.5 95t-56 61.5 t-104 21.5q-111 0 -161 -76t-50 -195v-522h-233v494q0 66 -5 121t-23.5 95t-56.5 61.5t-104 21.5q-109 0 -160 -76t-51 -195v-522h-233z" />
<glyph unicode="n" horiz-adv-x="1118" d="M129 0v975h233v-125q35 66 114 107.5t190 41.5q84 0 151.5 -27.5t116.5 -92.5q16 -25 28.5 -51.5t20.5 -64.5t12 -89t4 -121v-553h-233v494q0 55 -3 102t-13 84q-16 53 -56.5 83t-115.5 30q-111 0 -163.5 -76t-52.5 -195v-522h-233z" />
<glyph unicode="o" horiz-adv-x="1122" d="M74 483q0 117 34.5 212.5t98 163t154 103t200.5 35.5q111 0 201 -35.5t153.5 -103t98.5 -163t35 -212.5t-34 -211t-97.5 -159.5t-153.5 -101.5t-203 -36t-203 36t-153.5 101.5t-97 159.5t-33.5 211zM305 487q0 -147 72 -229t184 -82q113 0 184.5 83t71.5 228 q0 147 -69.5 229.5t-186.5 82.5t-186.5 -82.5t-69.5 -229.5z" />
<glyph unicode="p" horiz-adv-x="1155" d="M129 -389v1364h233v-107q41 53 116 92t171 39q98 0 178 -37.5t136.5 -106.5t87 -164t30.5 -208q0 -111 -30.5 -204t-88 -160.5t-136.5 -105.5t-177 -38t-168.5 35t-118.5 92v-491h-233zM352 487q0 -141 68.5 -225t179.5 -84q113 0 180.5 82t67.5 227q0 147 -67.5 229.5 t-180.5 82.5q-111 0 -179.5 -85.5t-68.5 -226.5z" />
<glyph unicode="q" horiz-adv-x="1155" d="M74 483q0 113 30.5 208t87 164t136.5 106.5t178 37.5q96 0 171 -38.5t116 -92.5v107h233v-1364h-233v491q-47 -57 -118 -92t-169 -35t-177 38t-136.5 105.5t-88 161t-30.5 203.5zM307 487q0 -145 67.5 -227t180.5 -82q111 0 179.5 84t68.5 225t-68.5 226.5t-179.5 85.5 q-113 0 -180.5 -82t-67.5 -230z" />
<glyph unicode="r" horiz-adv-x="729" d="M129 0v975h233v-144q6 18 26 47t53.5 56t83.5 46t122 19h15.5t21.5 -2v-237q-16 2 -32.5 3t-33.5 1q-94 0 -148 -34t-81 -99q-14 -37 -20.5 -82t-6.5 -111v-438h-233z" />
<glyph unicode="s" horiz-adv-x="985" d="M47 174l158 139q41 -55 113.5 -100t185.5 -45q88 0 136 28.5t48 82.5q0 51 -39 67t-110 33l-146 31q-63 14 -118.5 35.5t-96.5 55.5t-64.5 81t-23.5 114q0 80 35 137.5t91 94.5t127 54t140 17q74 0 137.5 -14t115.5 -36.5t91 -50.5t64 -54l-135 -146q-51 49 -120 80 t-155 31q-70 0 -114.5 -24.5t-44.5 -71.5q0 -27 12 -43.5t37.5 -28.5t64.5 -21.5t90 -19.5l117 -27q55 -12 106.5 -30.5t89.5 -49t61.5 -75.5t23.5 -113q0 -84 -35 -145.5t-94.5 -102.5t-136 -61.5t-160.5 -20.5q-88 0 -161 19.5t-130 48.5t-97 64.5t-63 66.5z" />
<glyph unicode="t" horiz-adv-x="751" d="M25 793v182h208v340l234 51v-391h227v-182h-227v-498q0 -41 6 -63.5t21 -36.5q14 -16 40.5 -21.5t57.5 -5.5t57.5 2t44.5 6v-184q-72 -16 -174 -17q-72 0 -138.5 17.5t-107.5 66.5q-29 35 -35 80t-6 117v537h-208z" />
<glyph unicode="u" horiz-adv-x="1097" d="M119 422v553h233v-518q0 -53 4 -101.5t21 -87.5q16 -39 52 -62.5t97 -23.5q111 0 160 76t49 195v522h234v-975h-234v125q-35 -61 -110.5 -105.5t-180.5 -44.5q-74 0 -135 24t-104 71q-23 27 -39 54.5t-26.5 67t-15.5 95t-5 135.5z" />
<glyph unicode="v" horiz-adv-x="929" d="M25 975h241l150 -506q10 -39 20 -73t19 -62q8 -33 14 -60h2q6 27 14 60q6 29 15.5 64.5t21.5 76.5l146 500h239l-321 -975h-244z" />
<glyph unicode="w" horiz-adv-x="1462" d="M35 975h237l115 -430q18 -72 34.5 -135.5t31.5 -139.5h2q14 72 28.5 133.5t36.5 147.5l113 424h207l112 -430q12 -47 21.5 -82t16.5 -64.5t14.5 -60.5t13.5 -68h2q6 37 13 67t14.5 61.5t17.5 68.5t22 84l115 424h234l-297 -975h-228l-102 373q-20 72 -40.5 161t-33.5 164 h-2q-16 -72 -35.5 -162t-42.5 -167l-108 -369h-232z" />
<glyph unicode="x" horiz-adv-x="976" d="M12 0l336 516l-303 459h283l168 -273l161 273h275l-303 -459l336 -516h-273l-209 324l-202 -324h-269z" />
<glyph unicode="y" horiz-adv-x="929" d="M12 975h244l160 -526q10 -35 19 -70t18 -64q8 -35 16 -67h2q6 31 14 65q6 29 15.5 65t19.5 71l139 526h234l-326 -1092q-25 -82 -48 -131t-54 -82q-39 -41 -92.5 -58.5t-134.5 -17.5q-47 0 -76 4.5t-51 8.5v190q18 -4 37.5 -7t41.5 -3q76 0 107 31.5t49 91.5l16 59z" />
<glyph unicode="z" horiz-adv-x="983" d="M74 0v180l528 588h-510v205h809v-182l-520 -586h520v-205h-827z" />
<glyph unicode="{" horiz-adv-x="626" d="M66 465v151q41 12 62.5 27.5t31.5 39.5t12 56.5t2 75.5v260q0 100 15.5 162.5t55.5 97.5t108.5 46.5t172.5 11.5h33v-170q-49 0 -78.5 -8.5t-47 -27t-22.5 -48t-5 -74.5v-188q0 -80 -3.5 -136.5t-15.5 -96.5t-34.5 -63.5t-61.5 -37.5v-4q39 -14 61.5 -38t34.5 -64 t15.5 -96t3.5 -136v-203q0 -45 5 -74.5t22.5 -48t47 -27t78.5 -8.5v-170h-33q-104 0 -172.5 11.5t-108.5 46.5t-55.5 96t-15.5 164v274q0 43 -2 76t-12 56.5t-32 39t-62 27.5z" />
<glyph unicode="|" horiz-adv-x="509" d="M139 -326v1719h232v-1719h-232z" />
<glyph unicode="}" horiz-adv-x="626" d="M68 -156q49 0 78.5 8.5t47 27t22.5 48t5 74.5v203q0 80 3 136t15.5 96t35 63.5t61.5 38.5v4q-39 14 -61.5 37.5t-35 63.5t-15.5 96.5t-3 136.5v188q0 45 -5 74.5t-22.5 48t-47 27t-78.5 8.5v170h32q104 0 172 -11.5t108 -46.5t56.5 -97t16.5 -163v-260q0 -43 2 -75.5 t12 -56.5t31.5 -39t62.5 -28v-151q-41 -12 -62.5 -27.5t-31.5 -39t-12 -56.5t-2 -76v-274q0 -102 -16.5 -163.5t-56.5 -96.5t-107.5 -46.5t-172.5 -11.5h-32v170z" />
<glyph unicode="~" horiz-adv-x="1175" d="M70 616q14 25 43.5 55.5t69.5 56.5t91.5 44.5t110.5 18.5q68 0 124 -24t120 -56q35 -16 70.5 -35t88.5 -19q57 0 117 30t101 77l102 -178q-61 -78 -151.5 -120t-176.5 -42q-37 0 -67.5 6t-58 16.5t-56.5 24.5t-61 31q-31 16 -74 33.5t-82 17.5q-35 0 -84 -19.5 t-115 -99.5z" />
<glyph unicode="&#xa1;" horiz-adv-x="487" d="M121 715v260h250v-260h-250zM129 217l25 401h178l28 -401v-635h-231v635z" />
<glyph unicode="&#xa2;" horiz-adv-x="1062" d="M84 483q0 106 28.5 192.5t79 151t119 104.5t150.5 56v201h201v-199q133 -23 217 -100.5t118 -181.5l-200 -101q-16 59 -50 104.5t-85 67.5v-583q59 23 92.5 70.5t50.5 101.5l194 -105q-12 -35 -38.5 -77t-67.5 -82t-98.5 -71.5t-132.5 -45.5v-217h-201v215 q-172 29 -274.5 155.5t-102.5 343.5zM315 487q0 -109 39 -181.5t107 -104.5v573q-70 -31 -108 -104.5t-38 -182.5z" />
<glyph unicode="&#xa3;" horiz-adv-x="1157" d="M86 0v205q57 4 97 16t64.5 42t36 80t11.5 130v66.5t-4 62.5h-205v207h188q-2 35 -3 80t-1 80q0 92 20.5 173t68 142.5t124 96t189.5 34.5q193 0 300 -108.5t107 -307.5l-225 -41q-2 51 -11 95.5t-30.5 77t-55.5 51t-83 18.5q-51 0 -83 -19.5t-50.5 -52t-25.5 -75.5 t-7 -90q0 -80 6 -154h289v-207h-277q2 -29 3 -60.5t1 -66.5q0 -37 -3 -76t-13 -72.5t-27.5 -61t-46.5 -46.5v-2h72q35 0 81 1t103 1h353v-219h-963z" />
<glyph unicode="&#xa4;" horiz-adv-x="1148" d="M82 248l125 123q-51 92 -51 207q0 59 14 112t41 101l-55 53l-74 69l162 162l125 -127q90 51 206 51q57 0 110.5 -11t100.5 -38l121 121l158 -158l-121 -122q51 -90 51 -213q0 -59 -11 -111.5t-38 -99.5l121 -117l-160 -160l-121 121q-94 -51 -211 -51q-57 0 -110 11 t-100 40l-123 -123zM354 578q0 -47 17.5 -88t47.5 -72t69.5 -48.5t86.5 -17.5t88.5 17.5t71 48.5t47 71.5t17.5 88.5q0 47 -16.5 88t-46 71.5t-70.5 49t-91 18.5q-47 0 -86.5 -17.5t-69.5 -48t-47.5 -72.5t-17.5 -89z" />
<glyph unicode="&#xa5;" horiz-adv-x="1294" d="M59 1393h269l327 -574l312 574h268l-375 -639h275v-195h-367v-127h367v-194h-367v-238h-238v238h-370v194h370v127h-370v195h278z" />
<glyph unicode="&#xa6;" horiz-adv-x="518" d="M143 -326v662h232v-662h-232zM143 731v662h232v-662h-232z" />
<glyph unicode="&#xa7;" horiz-adv-x="1060" d="M63 20l162 142q41 -57 112 -102.5t179 -45.5q92 0 142.5 31t50.5 90q0 51 -48.5 85t-115.5 59l-156 59q-63 23 -116.5 51.5t-91.5 66.5t-59.5 86t-21.5 113q0 47 15.5 86t41 70t57.5 51.5t65 32.5q-16 12 -37 30.5t-38.5 44t-29.5 61.5t-12 83q0 80 35.5 137.5t92 94 t127 54t140.5 17.5q74 0 136.5 -15.5t114.5 -38t90 -50t63 -53.5l-136 -146q-51 49 -122.5 81t-151.5 32q-68 0 -110 -23.5t-42 -68.5q0 -49 41 -77t121 -63l141 -61q51 -23 100.5 -48.5t87.5 -60t60.5 -81t22.5 -107.5q0 -55 -14.5 -96t-37 -74t-51 -56.5t-55.5 -41.5 q18 -14 41 -33t41 -45.5t30.5 -60t12.5 -76.5q0 -84 -35 -145.5t-93 -103.5t-136 -62.5t-166 -20.5q-84 0 -156.5 19.5t-129 48t-97.5 64.5t-64 66zM330 680q0 -55 41 -85t112 -58l168 -66q39 18 62.5 51t23.5 68q0 47 -34.5 73.5t-94.5 53.5l-84 37q-20 10 -40.5 17 t-53.5 20q-47 -12 -73.5 -43t-26.5 -68z" />
<glyph unicode="&#xa8;" horiz-adv-x="1024" d="M211 1130v242h221v-242h-221zM594 1130v242h221v-242h-221z" />
<glyph unicode="&#xa9;" horiz-adv-x="1564" d="M84 717q0 147 53 275t146.5 222.5t221.5 148.5t277 54q150 0 277 -54t221 -148.5t147.5 -222.5t53.5 -275t-53.5 -275.5t-147.5 -222.5t-221 -148.5t-277 -54.5t-277.5 54.5t-221 148.5t-146.5 222t-53 276zM254 717q0 -111 41 -209t111.5 -172t167 -116t208.5 -42 q113 0 209 42t167 116t112 172t41 209t-41 209t-112 171.5t-167 115.5t-209 42t-209 -42t-166.5 -115.5t-111.5 -172t-41 -208.5zM416 713q0 90 26.5 163.5t74.5 127t118 83t156 29.5q68 0 120 -19.5t89.5 -47t63.5 -59.5t40 -56l-133 -92q-61 131 -180 131 q-98 0 -150.5 -72t-52.5 -188q0 -117 52 -186.5t151 -69.5q117 0 178 121l139 -70q-12 -29 -38 -62.5t-63.5 -64.5t-92 -51.5t-123.5 -20.5q-90 0 -161 30t-118 83t-71.5 127t-24.5 164z" />
<glyph unicode="&#xaa;" horiz-adv-x="790" d="M84 940q0 100 63.5 142t167.5 63l142 26q37 6 37 33v8q0 41 -27 60.5t-86 19.5q-129 0 -125 -114l-154 8q0 61 22.5 105t61.5 72t91.5 41t111.5 13q57 0 104.5 -10t81 -33.5t53 -60.5t19.5 -92v-320q0 -29 7.5 -40t31.5 -11h14v-111q-2 0 -6 -1t-8 -1q-10 -2 -26.5 -3 t-36.5 -1q-92 0 -117 64q-20 -20 -63.5 -43t-127.5 -23q-45 0 -87 12.5t-73.5 38t-51 64.5t-19.5 94zM246 944q0 -43 29.5 -63.5t78.5 -20.5q61 0 100.5 31t39.5 94v70q-12 -4 -34 -8.5t-44 -8.5l-35 -6q-59 -10 -97 -27.5t-38 -60.5z" />
<glyph unicode="&#xab;" horiz-adv-x="958" d="M92 446v297l332 285v-270l-195 -156l195 -168v-266zM510 446v297l332 285v-270l-195 -156l195 -168v-266z" />
<glyph unicode="&#xac;" horiz-adv-x="1144" d="M84 733v197h934v-565h-234v368h-700z" />
<glyph unicode="&#xad;" horiz-adv-x="833" d="M125 438v221h584v-221h-584z" />
<glyph unicode="&#xae;" horiz-adv-x="1564" d="M84 717q0 147 53 275t146.5 222.5t221.5 148.5t277 54q150 0 277 -54t221 -148.5t147.5 -222.5t53.5 -275t-53.5 -275.5t-147.5 -222.5t-221 -148.5t-277 -54.5t-277.5 54.5t-221 148.5t-146.5 222t-53 276zM254 717q0 -111 41 -209t111.5 -172t167 -116t208.5 -42 q113 0 209 42t167 116t112 172t41 209t-41 209t-112 171.5t-167 115.5t-209 42t-209 -42t-166.5 -115.5t-111.5 -172t-41 -208.5zM463 332v776h342q111 0 166 -29q59 -29 101 -84t42 -137q0 -100 -52 -157.5t-130 -82.5l209 -286h-203l-195 276h-120v-276h-160zM623 758h161 q49 0 76 3t43 11q49 25 49 86q0 63 -49 86q-16 8 -41.5 10t-77.5 2h-161v-198z" />
<glyph unicode="&#xaf;" horiz-adv-x="1024" d="M213 1202v191h598v-191h-598z" />
<glyph unicode="&#xb0;" horiz-adv-x="888" d="M72 1053q0 78 28.5 145.5t79.5 118.5t119 79.5t145 28.5q78 0 145.5 -28.5t119 -79.5t80 -119t28.5 -145q0 -78 -28.5 -145.5t-80 -119t-119 -80t-145.5 -28.5t-145.5 28.5t-118.5 80t-79.5 119t-28.5 145.5zM289 1053q0 -63 46 -109.5t109 -46.5t109.5 46t46.5 110 q0 63 -46 109t-110 46q-63 0 -109 -46t-46 -109z" />
<glyph unicode="&#xb1;" horiz-adv-x="1417" d="M102 0v217h1213v-217h-1213zM102 600v217h498v406h219v-406h496v-217h-496v-321h-219v321h-498z" />
<glyph unicode="&#xb2;" horiz-adv-x="827" d="M104 545v151q82 57 159 114.5t118 98.5q47 43 86 101.5t39 124.5q0 47 -25.5 74.5t-74.5 27.5q-57 0 -81 -37t-24 -84q0 -23 4 -45t10 -43l-196 35q-10 45 -10 78q0 57 20.5 107t60 88t98 59.5t132.5 21.5q135 0 214 -74.5t79 -203.5q0 -72 -28 -134.5t-72 -113.5 t-98 -92t-105 -72q29 2 75.5 3t94.5 1h139v-186h-615z" />
<glyph unicode="&#xb3;" horiz-adv-x="776" d="M76 821l192 31q6 -137 117 -137q57 0 79.5 32.5t22.5 69.5q0 23 -8 42.5t-28 31.5q-35 20 -101 20h-51v160h47q61 0 88 16q43 23 43 78q0 33 -23.5 56.5t-70.5 23.5q-53 0 -76.5 -32.5t-23.5 -75.5l-181 16q0 53 18.5 101.5t55.5 84t90 57t123 21.5q131 0 206 -64.5 t75 -166.5q0 -61 -26 -106.5t-60 -67.5q41 -29 72.5 -75t31.5 -132q0 -55 -20.5 -103.5t-58.5 -85t-94 -57t-130 -20.5q-147 0 -226 76.5t-83 205.5z" />
<glyph unicode="&#xb4;" horiz-adv-x="1024" d="M311 1130l131 263h277l-207 -263h-201z" />
<glyph unicode="&#xb5;" horiz-adv-x="1083" d="M133 -389v1364h234v-518q0 -53 4 -101.5t20 -87.5t52 -62.5t98 -23.5q111 0 160 76t49 195v522h233v-975h-233v125q-27 -57 -91.5 -100t-156.5 -43q-78 0 -135 36v-407h-234z" />
<glyph unicode="&#xb6;" horiz-adv-x="1300" d="M57 999q0 195 131 301q51 41 125 67t213 26h695v-170h-146v-1485h-174v1485h-178v-1485h-180v870h-17q-139 0 -212.5 22.5t-125.5 65.5q-131 100 -131 303z" />
<glyph unicode="&#xb7;" horiz-adv-x="507" d="M123 520v271h264v-271h-264z" />
<glyph unicode="&#xb8;" horiz-adv-x="1024" d="M344 -100l127 106h119l-78 -67q72 -2 121 -40t49 -116q0 -47 -18.5 -81t-47 -56.5t-67.5 -33.5t-78 -11q-63 0 -115 24l31 94q27 -10 44.5 -12t33.5 -2q37 0 60.5 17.5t23.5 48.5q0 35 -24.5 49t-57.5 14q-35 0 -76 -20z" />
<glyph unicode="&#xb9;" horiz-adv-x="583" d="M59 1061v168h74q43 0 69.5 10t42 30.5t21.5 51.5t8 72h183v-856h-193v524h-205z" />
<glyph unicode="&#xba;" horiz-adv-x="768" d="M80 1075q0 156 83 249t222 93t221 -93t82 -249q0 -160 -81 -252t-222 -92t-223 92t-82 252zM238 1075q0 -98 42 -149.5t105 -51.5q61 0 103 52.5t42 148.5q0 94 -39.5 146.5t-105.5 52.5t-106.5 -53.5t-40.5 -145.5z" />
<glyph unicode="&#xbb;" horiz-adv-x="958" d="M117 168v266l194 168l-194 156v270l332 -285v-297zM535 168v266l194 168l-194 156v270l331 -285v-297z" />
<glyph unicode="&#xbc;" horiz-adv-x="1576" d="M66 1061v168h73q43 0 70 10t42 30.5t21.5 51.5t8.5 72h182v-856h-193v524h-204zM274 0l732 1393h215l-725 -1393h-222zM823 188v129l371 531h186v-490h138v-170h-138v-188h-178v188h-379zM1040 358h162v74q0 29 1 62.5t3 62.5q2 35 4 68h-2q-6 -14 -14 -29 q-8 -12 -18.5 -29.5t-20.5 -34.5l-45 -69q-12 -18 -24.5 -36.5t-22.5 -35.5q-12 -18 -23 -33z" />
<glyph unicode="&#xbd;" horiz-adv-x="1656" d="M63 1061v168h74q43 0 69.5 10t42 30.5t21.5 51.5t9 72h182v-856h-193v524h-205zM281 0l731 1393h215l-725 -1393h-221zM967 0v152q82 57 158.5 114.5t117.5 98.5q47 43 86 101t39 124q0 47 -25.5 74.5t-74.5 27.5q-57 0 -81 -37t-24 -84q0 -23 4 -45t11 -43l-197 35 q-10 45 -10 78q0 57 20.5 107.5t60.5 88t98 59t132 21.5q135 0 214 -74.5t79 -203.5q0 -72 -27.5 -134.5t-71.5 -113.5t-98.5 -92t-105.5 -72q29 2 76 3t94 1h139v-186h-614z" />
<glyph unicode="&#xbe;" horiz-adv-x="1763" d="M66 821l192 31q6 -137 117 -137q57 0 79.5 32.5t22.5 69.5q0 23 -8 42.5t-29 31.5q-35 20 -100 20h-51v160h47q61 0 88 16q43 23 43 78q0 33 -23.5 56.5t-70.5 23.5q-53 0 -77 -32.5t-24 -75.5l-180 16q0 53 18.5 101.5t55.5 84t90 57t123 21.5q131 0 205.5 -64.5 t74.5 -166.5q0 -61 -25.5 -106.5t-60.5 -67.5q41 -29 73 -75t32 -132q0 -55 -20.5 -103.5t-58.5 -85t-94 -57t-130 -20.5q-147 0 -226 76.5t-83 205.5zM459 -6l733 1399h215l-727 -1399h-221zM1010 188v129l370 531h187v-490h137v-170h-137v-188h-178v188h-379zM1227 358 h162v74q0 29 1 62.5t3 62.5q2 35 4 68h-2q-6 -14 -15 -29q-8 -12 -18 -29.5t-21 -34.5l-45 -69q-12 -18 -24 -36.5t-23 -35.5z" />
<glyph unicode="&#xbf;" horiz-adv-x="999" d="M55 -45q0 106 46 195.5t135 164.5l67 56q35 31 58.5 53t38 45t20.5 47.5t6 58.5v66h221v-78q0 -47 -5 -87t-21.5 -77t-45 -72.5t-73.5 -72.5l-86 -72q-59 -47 -84 -104.5t-25 -120.5q0 -84 50.5 -137t148.5 -53q100 0 150.5 56t50.5 142q0 55 -19.5 111.5t-50.5 105.5 l264 -39q23 -41 33 -89t10 -99q0 -80 -29.5 -151.5t-86 -127t-139.5 -87t-187 -31.5q-117 0 -201 32.5t-139.5 88t-81 127t-25.5 149.5zM416 719v256h241v-256h-241z" />
<glyph unicode="&#xc0;" horiz-adv-x="1259" d="M8 0l484 1393h278l479 -1393h-264l-106 315h-506l-109 -315h-256zM336 1821h287l137 -297h-201zM442 535h365l-129 423q-16 49 -28.5 93.5t-22.5 85.5h-2q-10 -39 -22.5 -82t-29.5 -92z" />
<glyph unicode="&#xc1;" horiz-adv-x="1259" d="M8 0l484 1393h278l479 -1393h-264l-106 315h-506l-109 -315h-256zM442 535h365l-129 423q-16 49 -28.5 93.5t-22.5 85.5h-2q-10 -39 -22.5 -82t-29.5 -92zM506 1524l137 297h287l-223 -297h-201z" />
<glyph unicode="&#xc2;" horiz-adv-x="1259" d="M8 0l484 1393h278l479 -1393h-264l-106 315h-506l-109 -315h-256zM295 1524l258 297h164l260 -297h-229l-115 127l-111 -127h-227zM442 535h365l-129 423q-16 49 -28.5 93.5t-22.5 85.5h-2q-10 -39 -22.5 -82t-29.5 -92z" />
<glyph unicode="&#xc3;" horiz-adv-x="1259" d="M8 0l484 1393h278l479 -1393h-264l-106 315h-506l-109 -315h-256zM268 1591q6 25 23.5 62t46.5 70.5t68.5 57t93.5 23.5q39 0 70.5 -12t62.5 -29q29 -16 56.5 -27.5t53.5 -11.5q35 0 56.5 28t31.5 60l148 -49q-16 -39 -35.5 -76.5t-47.5 -68.5t-63.5 -49.5t-84.5 -18.5 q-41 0 -72 10.5t-64 26.5q-35 16 -64.5 30.5t-51.5 14.5q-35 0 -51.5 -28.5t-26.5 -59.5zM442 535h365l-129 423q-16 49 -28.5 93.5t-22.5 85.5h-2q-10 -39 -22.5 -82t-29.5 -92z" />
<glyph unicode="&#xc4;" horiz-adv-x="1259" d="M8 0l484 1393h278l479 -1393h-264l-106 315h-506l-109 -315h-256zM338 1524v260h229v-260h-229zM442 535h365l-129 423q-16 49 -28.5 93.5t-22.5 85.5h-2q-10 -39 -22.5 -82t-29.5 -92zM729 1524v260h229v-260h-229z" />
<glyph unicode="&#xc5;" horiz-adv-x="1259" d="M8 0l484 1393h278l479 -1393h-264l-106 315h-506l-109 -315h-256zM406 1690q0 94 63 156.5t158 62.5q94 0 157.5 -62.5t63.5 -156.5t-63.5 -157t-157.5 -63t-157.5 63t-63.5 157zM442 535h365l-129 423q-16 49 -28.5 93.5t-22.5 85.5h-2q-10 -39 -22.5 -82t-29.5 -92z M545 1690q0 -35 23.5 -57.5t56.5 -22.5t56.5 22.5t23.5 57.5t-24 57t-56 22q-33 0 -56.5 -22t-23.5 -57z" />
<glyph unicode="&#xc6;" horiz-adv-x="1951" d="M-49 0l827 1393h1053v-219h-676v-345h612v-219h-612v-391h721v-219h-967v336h-497l-199 -336h-262zM524 535h385v407v120t2 85q0 39 2 67h-2q-27 -53 -61.5 -114.5t-75.5 -130.5z" />
<glyph unicode="&#xc7;" horiz-adv-x="1363" d="M84 696q0 160 46 292t132 227.5t209 148.5t277 53q121 0 213 -32.5t159.5 -82t111.5 -104.5t71 -100l-216 -133q-51 111 -134 171t-205 60q-92 0 -165 -36t-124 -100.5t-78 -157.5t-27 -206q0 -227 102.5 -360t291.5 -133q119 0 202.5 56t132.5 159l234 -99 q-23 -47 -64 -102t-103.5 -106.5t-148.5 -88t-200 -45.5l-33 -38q72 -2 121 -40t49 -116q0 -47 -18.5 -81t-47 -56.5t-67.5 -33.5t-78 -11q-63 0 -115 24l31 94q27 -10 44.5 -12t33.5 -2q37 0 60.5 17.5t23.5 48.5q0 35 -24.5 49t-57.5 14q-35 0 -76 -20l-47 86l82 77 q-145 10 -257 67.5t-187.5 152t-114.5 221.5t-39 278z" />
<glyph unicode="&#xc8;" horiz-adv-x="1253" d="M156 0v1393h974v-219h-729v-345h662v-219h-662v-391h781v-219h-1026zM381 1821h287l137 -297h-201z" />
<glyph unicode="&#xc9;" horiz-adv-x="1253" d="M156 0v1393h974v-219h-729v-345h662v-219h-662v-391h781v-219h-1026zM526 1524l138 297h286l-223 -297h-201z" />
<glyph unicode="&#xca;" horiz-adv-x="1253" d="M156 0v1393h974v-219h-729v-345h662v-219h-662v-391h781v-219h-1026zM317 1524l258 297h164l260 -297h-229l-115 127l-110 -127h-228z" />
<glyph unicode="&#xcb;" horiz-adv-x="1253" d="M156 0v1393h974v-219h-729v-345h662v-219h-662v-391h781v-219h-1026zM354 1524v260h230v-260h-230zM745 1524v260h230v-260h-230z" />
<glyph unicode="&#xcc;" horiz-adv-x="557" d="M-6 1821h287l137 -297h-201zM156 0v1393h245v-1393h-245z" />
<glyph unicode="&#xcd;" horiz-adv-x="557" d="M139 1524l137 297h287l-223 -297h-201zM156 0v1393h245v-1393h-245z" />
<glyph unicode="&#xce;" horiz-adv-x="557" d="M-57 1524l258 297h164l260 -297h-230l-114 127l-111 -127h-227zM156 0v1393h245v-1393h-245z" />
<glyph unicode="&#xcf;" horiz-adv-x="557" d="M-31 1561v260h230v-260h-230zM156 0v1393h245v-1393h-245zM360 1561v260h230v-260h-230z" />
<glyph unicode="&#xd0;" horiz-adv-x="1413" d="M35 592v207h133v594h389q84 0 154.5 -2t131 -11.5t115 -29t107.5 -56.5q115 -84 187.5 -236.5t72.5 -357.5q0 -176 -52 -319t-151 -236q-55 -55 -115.5 -83.5t-129 -43t-148.5 -16.5t-178 -2h-383v592h-133zM416 223h162q117 0 205.5 11.5t154.5 72.5q49 51 87 153.5 t38 231.5t-36 229.5t-107 161.5q-61 53 -146.5 67.5t-222.5 14.5h-135v-366h405v-207h-405v-369z" />
<glyph unicode="&#xd1;" horiz-adv-x="1417" d="M156 0v1393h229l530 -797q12 -18 27.5 -43t31 -49.5t29 -45t19.5 -32.5q0 16 -1 69.5t-1 124t-1 151.5t-1 155v467h244v-1393h-230l-549 838q-16 25 -31.5 50t-27.5 45.5t-20 34.5l-9 13q0 -25 1 -76t2 -119.5t1 -150.5v-170v-465h-243zM375 1591q6 25 23.5 62t46 70.5 t68.5 57t93 23.5q39 0 71 -12t62 -29q29 -16 56.5 -27.5t54.5 -11.5q35 0 56.5 28t31.5 60l147 -49q-16 -39 -35.5 -76.5t-47 -68.5t-63.5 -49.5t-85 -18.5q-41 0 -71.5 10.5t-63.5 26.5q-35 16 -64.5 30.5t-52.5 14.5q-35 0 -51 -28.5t-27 -59.5z" />
<glyph unicode="&#xd2;" horiz-adv-x="1486" d="M84 696q0 160 46 292t132 227.5t208 148.5t273 53q152 0 274 -53t208 -148.5t132 -227.5t46 -292t-43 -292t-127 -227t-207 -148.5t-283 -53.5q-158 0 -280.5 53.5t-206.5 148.5t-128 227t-44 292zM352 696q0 -115 27 -206t77 -156.5t122.5 -100t164.5 -34.5t165 34.5 t123 100t77 157t27 205.5q0 113 -27 206t-78 158.5t-122.5 101.5t-164.5 36q-92 0 -163.5 -36t-122.5 -101.5t-78 -158.5t-27 -206zM473 1821h287l137 -297h-201z" />
<glyph unicode="&#xd3;" horiz-adv-x="1486" d="M84 696q0 160 46 292t132 227.5t208 148.5t273 53q152 0 274 -53t208 -148.5t132 -227.5t46 -292t-43 -292t-127 -227t-207 -148.5t-283 -53.5q-158 0 -280.5 53.5t-206.5 148.5t-128 227t-44 292zM352 696q0 -115 27 -206t77 -156.5t122.5 -100t164.5 -34.5t165 34.5 t123 100t77 157t27 205.5q0 113 -27 206t-78 158.5t-122.5 101.5t-164.5 36q-92 0 -163.5 -36t-122.5 -101.5t-78 -158.5t-27 -206zM590 1524l137 297h287l-223 -297h-201z" />
<glyph unicode="&#xd4;" horiz-adv-x="1486" d="M84 696q0 160 46 292t132 227.5t208 148.5t273 53q152 0 274 -53t208 -148.5t132 -227.5t46 -292t-43 -292t-127 -227t-207 -148.5t-283 -53.5q-158 0 -280.5 53.5t-206.5 148.5t-128 227t-44 292zM352 696q0 -115 27 -206t77 -156.5t122.5 -100t164.5 -34.5t165 34.5 t123 100t77 157t27 205.5q0 113 -27 206t-78 158.5t-122.5 101.5t-164.5 36q-92 0 -163.5 -36t-122.5 -101.5t-78 -158.5t-27 -206zM408 1526l258 297h163l261 -297h-230l-115 127l-110 -127h-227z" />
<glyph unicode="&#xd5;" horiz-adv-x="1486" d="M84 696q0 160 46 292t132 227.5t208 148.5t273 53q152 0 274 -53t208 -148.5t132 -227.5t46 -292t-43 -292t-127 -227t-207 -148.5t-283 -53.5q-158 0 -280.5 53.5t-206.5 148.5t-128 227t-44 292zM352 696q0 -115 27 -206t77 -156.5t122.5 -100t164.5 -34.5t165 34.5 t123 100t77 157t27 205.5q0 113 -27 206t-78 158.5t-122.5 101.5t-164.5 36q-92 0 -163.5 -36t-122.5 -101.5t-78 -158.5t-27 -206zM393 1591q6 25 23.5 62t46.5 70.5t68.5 57t93.5 23.5q39 0 70.5 -12t62.5 -29q29 -16 56.5 -27.5t53.5 -11.5q35 0 56.5 28t31.5 60l148 -49 q-16 -39 -35.5 -76.5t-47.5 -68.5t-63.5 -49.5t-85.5 -18.5q-41 0 -71.5 10.5t-63.5 26.5q-35 16 -64.5 30.5t-51.5 14.5q-35 0 -51.5 -28.5t-26.5 -59.5z" />
<glyph unicode="&#xd6;" horiz-adv-x="1486" d="M84 696q0 160 46 292t132 227.5t208 148.5t273 53q152 0 274 -53t208 -148.5t132 -227.5t46 -292t-43 -292t-127 -227t-207 -148.5t-283 -53.5q-158 0 -280.5 53.5t-206.5 148.5t-128 227t-44 292zM352 696q0 -115 27 -206t77 -156.5t122.5 -100t164.5 -34.5t165 34.5 t123 100t77 157t27 205.5q0 113 -27 206t-78 158.5t-122.5 101.5t-164.5 36q-92 0 -163.5 -36t-122.5 -101.5t-78 -158.5t-27 -206zM432 1524v260h230v-260h-230zM823 1524v260h230v-260h-230z" />
<glyph unicode="&#xd7;" horiz-adv-x="1327" d="M78 178l428 432l-428 428l155 156l429 -428l432 428l155 -154l-432 -430l432 -432l-155 -155l-432 432l-431 -432z" />
<glyph unicode="&#xd8;" horiz-adv-x="1490" d="M31 82l164 182q-107 178 -107 432q0 160 46 292t132 227.5t208 148.5t274 53q219 0 376 -110l150 168l162 -150l-156 -174q61 -92 94 -206t33 -249q0 -160 -43 -292t-127 -227t-207 -148.5t-282 -53.5q-123 0 -224.5 32t-179.5 91l-147 -164zM356 696q0 -119 29 -217 l580 649q-92 70 -217 70q-92 0 -164 -36t-123 -101.5t-78 -158.5t-27 -206zM508 283q94 -84 240 -84q92 0 164.5 34.5t122.5 100t77 156.5t27 206q0 141 -41 248z" />
<glyph unicode="&#xd9;" horiz-adv-x="1368" d="M143 578v815h244v-811q0 -102 7 -151.5t24 -84.5q33 -76 100.5 -109.5t165.5 -33.5t166 33.5t100 109.5q16 35 23.5 84t7.5 152v811h244v-815q0 -76 -4 -133.5t-12.5 -102.5t-23 -81t-32.5 -68q-70 -115 -192.5 -166.5t-276.5 -51.5t-276.5 51.5t-192.5 166.5 q-18 33 -32.5 68.5t-22.5 80.5t-12.5 102.5t-4.5 133.5zM406 1821h286l137 -297h-200z" />
<glyph unicode="&#xda;" horiz-adv-x="1368" d="M143 578v815h244v-811q0 -102 7 -151.5t24 -84.5q33 -76 100.5 -109.5t165.5 -33.5t166 33.5t100 109.5q16 35 23.5 84t7.5 152v811h244v-815q0 -76 -4 -133.5t-12.5 -102.5t-23 -81t-32.5 -68q-70 -115 -192.5 -166.5t-276.5 -51.5t-276.5 51.5t-192.5 166.5 q-18 33 -32.5 68.5t-22.5 80.5t-12.5 102.5t-4.5 133.5zM539 1524l137 297h287l-224 -297h-200z" />
<glyph unicode="&#xdb;" horiz-adv-x="1368" d="M143 578v815h244v-811q0 -102 7 -151.5t24 -84.5q33 -76 100.5 -109.5t165.5 -33.5t166 33.5t100 109.5q16 35 23.5 84t7.5 152v811h244v-815q0 -76 -4 -133.5t-12.5 -102.5t-23 -81t-32.5 -68q-70 -115 -192.5 -166.5t-276.5 -51.5t-276.5 51.5t-192.5 166.5 q-18 33 -32.5 68.5t-22.5 80.5t-12.5 102.5t-4.5 133.5zM358 1524l258 297h164l260 -297h-229l-115 127l-110 -127h-228z" />
<glyph unicode="&#xdc;" horiz-adv-x="1368" d="M143 578v815h244v-811q0 -102 7 -151.5t24 -84.5q33 -76 100.5 -109.5t165.5 -33.5t166 33.5t100 109.5q16 35 23.5 84t7.5 152v811h244v-815q0 -76 -4 -133.5t-12.5 -102.5t-23 -81t-32.5 -68q-70 -115 -192.5 -166.5t-276.5 -51.5t-276.5 51.5t-192.5 166.5 q-18 33 -32.5 68.5t-22.5 80.5t-12.5 102.5t-4.5 133.5zM373 1524v260h229v-260h-229zM764 1524v260h229v-260h-229z" />
<glyph unicode="&#xdd;" horiz-adv-x="1273" d="M4 1393h285l356 -596l363 596h282l-534 -824v-569h-246v569zM518 1524l137 297h287l-223 -297h-201z" />
<glyph unicode="&#xde;" horiz-adv-x="1234" d="M156 0v1393h245v-226h220q61 0 121.5 -3t115.5 -13t105.5 -30.5t91.5 -55.5q63 -53 98 -133t35 -176t-35 -178t-98 -136q-41 -35 -91.5 -55t-105.5 -30.5t-115.5 -13.5t-121.5 -3h-220v-340h-245zM401 559h246q72 0 116 6t75 21q45 23 70.5 66.5t25.5 103.5 q0 57 -25.5 102t-70.5 68q-31 14 -75 20t-116 6h-246v-393z" />
<glyph unicode="&#xdf;" horiz-adv-x="1058" d="M129 0v924q0 70 2 118t8 84.5t16.5 63.5t24.5 53q47 90 142.5 132t209.5 42q94 0 168 -25.5t123 -69.5t75 -105.5t26 -133.5q0 -86 -34 -153.5t-93 -102.5q80 -35 131 -120.5t51 -249.5q0 -236 -91 -351.5t-308 -115.5q-23 0 -47.5 1t-47.5 3v188q43 -6 74 -6 q63 0 100 19.5t55.5 56.5t23.5 88t5 113q0 86 -11 143t-50 86q-16 14 -50 25.5t-97 11.5h-23.5t-26.5 -2v184q14 -2 25.5 -2h24.5q84 0 121.5 36t37.5 128q0 82 -46 120t-122 38q-41 0 -78.5 -15.5t-60.5 -54.5q-16 -29 -20.5 -68t-4.5 -92v-991h-233z" />
<glyph unicode="&#xe0;" horiz-adv-x="1062" d="M76 281q0 55 14 97t41 75q45 53 119 84.5t170 48.5l215 37q39 8 50 15t11 36v16q0 61 -41 92t-133 31q-199 0 -196 -170l-220 14q-2 90 32 153.5t92.5 104.5t136 59.5t165.5 18.5q84 0 155 -14t123 -48t81 -89.5t29 -134.5v-484q0 -47 11 -64.5t52 -17.5h12v-153 q-10 -2 -34.5 -6.5t-75.5 -4.5q-68 0 -113 21.5t-59 79.5h-2q-14 -16 -37 -34.5t-57.5 -34t-83 -26t-113.5 -10.5q-72 0 -134.5 18.5t-108.5 55.5t-73.5 95.5t-27.5 138.5zM270 1393h277l131 -263h-201zM313 283q0 -59 41 -96t127 -37q96 0 155.5 48t59.5 148v119 q-27 -10 -53.5 -17.5t-79.5 -17.5l-90 -18q-84 -16 -122 -43t-38 -86z" />
<glyph unicode="&#xe1;" horiz-adv-x="1062" d="M76 281q0 55 14 97t41 75q45 53 119 84.5t170 48.5l215 37q39 8 50 15t11 36v16q0 61 -41 92t-133 31q-199 0 -196 -170l-220 14q-2 90 32 153.5t92.5 104.5t136 59.5t165.5 18.5q84 0 155 -14t123 -48t81 -89.5t29 -134.5v-484q0 -47 11 -64.5t52 -17.5h12v-153 q-10 -2 -34.5 -6.5t-75.5 -4.5q-68 0 -113 21.5t-59 79.5h-2q-14 -16 -37 -34.5t-57.5 -34t-83 -26t-113.5 -10.5q-72 0 -134.5 18.5t-108.5 55.5t-73.5 95.5t-27.5 138.5zM313 283q0 -59 41 -96t127 -37q96 0 155.5 48t59.5 148v119q-27 -10 -53.5 -17.5t-79.5 -17.5 l-90 -18q-84 -16 -122 -43t-38 -86zM397 1130l131 263h277l-207 -263h-201z" />
<glyph unicode="&#xe2;" horiz-adv-x="1062" d="M76 281q0 55 14 97t41 75q45 53 119 84.5t170 48.5l215 37q39 8 50 15t11 36v16q0 61 -41 92t-133 31q-199 0 -196 -170l-220 14q-2 90 32 153.5t92.5 104.5t136 59.5t165.5 18.5q84 0 155 -14t123 -48t81 -89.5t29 -134.5v-484q0 -47 11 -64.5t52 -17.5h12v-153 q-10 -2 -34.5 -6.5t-75.5 -4.5q-68 0 -113 21.5t-59 79.5h-2q-14 -16 -37 -34.5t-57.5 -34t-83 -26t-113.5 -10.5q-72 0 -134.5 18.5t-108.5 55.5t-73.5 95.5t-27.5 138.5zM219 1130l242 263h155l244 -263h-215l-108 103l-105 -103h-213zM313 283q0 -59 41 -96t127 -37 q96 0 155.5 48t59.5 148v119q-27 -10 -53.5 -17.5t-79.5 -17.5l-90 -18q-84 -16 -122 -43t-38 -86z" />
<glyph unicode="&#xe3;" horiz-adv-x="1062" d="M76 281q0 55 14 97t41 75q45 53 119 84.5t170 48.5l215 37q39 8 50 15t11 36v16q0 61 -41 92t-133 31q-199 0 -196 -170l-220 14q-2 90 32 153.5t92.5 104.5t136 59.5t165.5 18.5q84 0 155 -14t123 -48t81 -89.5t29 -134.5v-484q0 -47 11 -64.5t52 -17.5h12v-153 q-10 -2 -34.5 -6.5t-75.5 -4.5q-68 0 -113 21.5t-59 79.5h-2q-14 -16 -37 -34.5t-57.5 -34t-83 -26t-113.5 -10.5q-72 0 -134.5 18.5t-108.5 55.5t-73.5 95.5t-27.5 138.5zM178 1161q6 25 23.5 62t46 70.5t68.5 57t94 23.5q39 0 70.5 -12t62.5 -29q29 -16 56.5 -27.5 t53.5 -11.5q35 0 56.5 28t31.5 60l148 -49q-16 -39 -35.5 -76.5t-47.5 -68.5t-63.5 -49.5t-85.5 -18.5q-41 0 -71.5 10.5t-63.5 26.5q-35 16 -64.5 30.5t-51.5 14.5q-35 0 -51.5 -28.5t-26.5 -59.5zM313 283q0 -59 41 -96t127 -37q96 0 155.5 48t59.5 148v119 q-27 -10 -53.5 -17.5t-79.5 -17.5l-90 -18q-84 -16 -122 -43t-38 -86z" />
<glyph unicode="&#xe4;" horiz-adv-x="1062" d="M76 281q0 55 14 97t41 75q45 53 119 84.5t170 48.5l215 37q39 8 50 15t11 36v16q0 61 -41 92t-133 31q-199 0 -196 -170l-220 14q-2 90 32 153.5t92.5 104.5t136 59.5t165.5 18.5q84 0 155 -14t123 -48t81 -89.5t29 -134.5v-484q0 -47 11 -64.5t52 -17.5h12v-153 q-10 -2 -34.5 -6.5t-75.5 -4.5q-68 0 -113 21.5t-59 79.5h-2q-14 -16 -37 -34.5t-57.5 -34t-83 -26t-113.5 -10.5q-72 0 -134.5 18.5t-108.5 55.5t-73.5 95.5t-27.5 138.5zM238 1130v242h221v-242h-221zM313 283q0 -59 41 -96t127 -37q96 0 155.5 48t59.5 148v119 q-27 -10 -53.5 -17.5t-79.5 -17.5l-90 -18q-84 -16 -122 -43t-38 -86zM621 1130v242h221v-242h-221z" />
<glyph unicode="&#xe5;" horiz-adv-x="1062" d="M76 281q0 55 14 97t41 75q45 53 119 84.5t170 48.5l215 37q39 8 50 15t11 36v16q0 61 -41 92t-133 31q-199 0 -196 -170l-220 14q-2 90 32 153.5t92.5 104.5t136 59.5t165.5 18.5q84 0 155 -14t123 -48t81 -89.5t29 -134.5v-484q0 -47 11 -64.5t52 -17.5h12v-153 q-10 -2 -34.5 -6.5t-75.5 -4.5q-68 0 -113 21.5t-59 79.5h-2q-14 -16 -37 -34.5t-57.5 -34t-83 -26t-113.5 -10.5q-72 0 -134.5 18.5t-108.5 55.5t-73.5 95.5t-27.5 138.5zM313 283q0 -59 41 -96t127 -37q96 0 155.5 48t59.5 148v119q-27 -10 -53.5 -17.5t-79.5 -17.5 l-90 -18q-84 -16 -122 -43t-38 -86zM334 1245q0 86 57.5 142.5t143.5 56.5t143 -56.5t57 -142.5t-57 -142t-143 -56t-143.5 56t-57.5 142zM461 1245q0 -31 21.5 -51t49.5 -20q29 0 50.5 20t21.5 51t-21.5 51.5t-50.5 20.5t-50 -20.5t-21 -51.5z" />
<glyph unicode="&#xe6;" horiz-adv-x="1697" d="M76 283q0 72 25.5 123t70.5 86.5t108.5 57t139.5 36.5l215 37q39 8 50 15t11 36v16q0 61 -41 92t-133 31q-199 0 -196 -170l-220 14q-2 90 32 153.5t92.5 104.5t136 59.5t165.5 18.5q104 0 187.5 -23.5t134.5 -78.5q53 45 129 75.5t182 30.5q113 0 199 -39.5 t144.5 -110.5t88 -166t29.5 -208q0 -12 -1 -24.5t-1 -24.5h-711q6 -49 24.5 -94t52.5 -79t82 -54.5t114 -20.5t114 19.5t81.5 46t54 55.5t32.5 47l162 -123q-16 -25 -50 -66.5t-89 -81.5t-134 -69t-186 -29q-68 0 -127 15.5t-105 38t-79 48t-49 46.5q-25 -29 -58.5 -55.5 t-78.5 -48t-104.5 -34t-135.5 -12.5q-78 0 -144.5 18.5t-113.5 56.5t-73.5 96.5t-26.5 138.5zM313 283q0 -59 41 -96t127 -37q96 0 155.5 48t59.5 148v119q-27 -10 -53.5 -17.5t-79.5 -17.5l-90 -18q-84 -16 -122 -43t-38 -86zM920 598h475q-4 96 -68 154.5t-162 58.5 q-49 0 -93 -16.5t-76.5 -46t-53 -68.5t-22.5 -82z" />
<glyph unicode="&#xe7;" horiz-adv-x="1034" d="M74 483q0 123 36.5 218.5t101 162t153 100t188.5 33.5q86 0 154.5 -21.5t122 -58t91 -87t60.5 -107.5l-195 -102q-27 78 -82 127t-145 49q-117 0 -185.5 -81t-68.5 -229q0 -147 68.5 -228t185.5 -81q100 0 153.5 50.5t80.5 115.5l188 -100q-16 -39 -49 -84t-83 -85 t-120 -69t-158 -31l-39 -36q72 -2 121 -40t49 -116q0 -47 -18 -81t-47 -56.5t-68 -33.5t-77 -11q-63 0 -115 24l31 94q27 -10 44 -12t33 -2q37 0 60.5 17.5t23.5 48.5q0 35 -24.5 49t-57.5 14q-35 0 -75 -20l-47 86l96 82q-174 27 -280.5 154.5t-106.5 346.5z" />
<glyph unicode="&#xe8;" horiz-adv-x="1085" d="M74 496q0 113 36.5 205t101 158.5t152 102t189.5 35.5q113 0 199 -39.5t144 -110.5t88 -166t30 -208q0 -12 -1 -24.5t-1 -24.5h-711q6 -49 24.5 -94t52.5 -79t81 -54.5t112 -20.5q66 0 115 19.5t83 46t54.5 55.5t32.5 47l162 -123q-16 -25 -50 -66.5t-89.5 -81.5 t-134 -69t-185.5 -29q-109 0 -198 37t-153.5 104.5t-99 164t-34.5 215.5zM287 1393h276l131 -263h-200zM307 598h475q-4 96 -67.5 154.5t-161.5 58.5q-49 0 -93 -16.5t-77 -46t-53.5 -68.5t-22.5 -82z" />
<glyph unicode="&#xe9;" horiz-adv-x="1085" d="M74 496q0 113 36.5 205t101 158.5t152 102t189.5 35.5q113 0 199 -39.5t144 -110.5t88 -166t30 -208q0 -12 -1 -24.5t-1 -24.5h-711q6 -49 24.5 -94t52.5 -79t81 -54.5t112 -20.5q66 0 115 19.5t83 46t54.5 55.5t32.5 47l162 -123q-16 -25 -50 -66.5t-89.5 -81.5 t-134 -69t-185.5 -29q-109 0 -198 37t-153.5 104.5t-99 164t-34.5 215.5zM307 598h475q-4 96 -67.5 154.5t-161.5 58.5q-49 0 -93 -16.5t-77 -46t-53.5 -68.5t-22.5 -82zM434 1130l131 263h277l-207 -263h-201z" />
<glyph unicode="&#xea;" horiz-adv-x="1085" d="M74 496q0 113 36.5 205t101 158.5t152 102t189.5 35.5q113 0 199 -39.5t144 -110.5t88 -166t30 -208q0 -12 -1 -24.5t-1 -24.5h-711q6 -49 24.5 -94t52.5 -79t81 -54.5t112 -20.5q66 0 115 19.5t83 46t54.5 55.5t32.5 47l162 -123q-16 -25 -50 -66.5t-89.5 -81.5 t-134 -69t-185.5 -29q-109 0 -198 37t-153.5 104.5t-99 164t-34.5 215.5zM240 1130l241 263h156l244 -263h-215l-109 103l-104 -103h-213zM307 598h475q-4 96 -67.5 154.5t-161.5 58.5q-49 0 -93 -16.5t-77 -46t-53.5 -68.5t-22.5 -82z" />
<glyph unicode="&#xeb;" horiz-adv-x="1085" d="M74 496q0 113 36.5 205t101 158.5t152 102t189.5 35.5q113 0 199 -39.5t144 -110.5t88 -166t30 -208q0 -12 -1 -24.5t-1 -24.5h-711q6 -49 24.5 -94t52.5 -79t81 -54.5t112 -20.5q66 0 115 19.5t83 46t54.5 55.5t32.5 47l162 -123q-16 -25 -50 -66.5t-89.5 -81.5 t-134 -69t-185.5 -29q-109 0 -198 37t-153.5 104.5t-99 164t-34.5 215.5zM260 1130v242h221v-242h-221zM307 598h475q-4 96 -67.5 154.5t-161.5 58.5q-49 0 -93 -16.5t-77 -46t-53.5 -68.5t-22.5 -82zM643 1130v242h221v-242h-221z" />
<glyph unicode="&#xec;" horiz-adv-x="491" d="M-55 1393h276l131 -263h-200zM129 0v975h233v-975h-233z" />
<glyph unicode="&#xed;" horiz-adv-x="491" d="M129 0v975h233v-975h-233zM137 1130l131 263h277l-207 -263h-201z" />
<glyph unicode="&#xee;" horiz-adv-x="491" d="M-76 1130l242 263h156l243 -263h-215l-108 103l-105 -103h-213zM129 0v975h233v-975h-233z" />
<glyph unicode="&#xef;" horiz-adv-x="491" d="M-51 1130v242h221v-242h-221zM129 0v975h233v-975h-233zM332 1130v242h221v-242h-221z" />
<glyph unicode="&#xf0;" horiz-adv-x="1107" d="M74 500q0 119 35.5 214t99 160.5t149.5 100.5t189 35q41 0 85 -9.5t91 -29.5q-12 35 -28.5 71.5t-43.5 73.5l-311 -102l-59 160l264 81q-35 41 -65.5 69t-61.5 56l168 105q53 -53 89 -92t66 -78l209 71l58 -155l-170 -55q86 -141 138 -300t52 -344q0 -117 -29.5 -218 t-89 -177t-149.5 -119t-211 -43q-104 0 -191.5 37t-151 105.5t-98 165t-34.5 217.5zM301 502q0 -158 68.5 -246t179.5 -88q115 0 182.5 88t67.5 246t-66.5 238.5t-183.5 80.5q-115 0 -181.5 -81.5t-66.5 -237.5z" />
<glyph unicode="&#xf1;" horiz-adv-x="1114" d="M125 0v969h233v-119q35 61 114 105t196 44q156 0 241 -94q23 -27 39.5 -54.5t26.5 -67.5t15 -95t5 -135v-553h-233v494q0 55 -3 102t-14 84q-16 53 -56 83t-116 30q-111 0 -163 -76t-52 -195v-522h-233zM258 1163q6 25 23.5 62t46 70.5t68.5 57t93 23.5q39 0 71 -12 t63 -29q29 -16 56.5 -27.5t53.5 -11.5q35 0 56.5 28t31.5 60l148 -49q-16 -39 -36 -76.5t-47.5 -68.5t-63.5 -49.5t-85 -18.5q-41 0 -71.5 10.5t-63.5 26.5q-35 16 -64.5 30.5t-52.5 14.5q-35 0 -51 -28.5t-26 -59.5z" />
<glyph unicode="&#xf2;" horiz-adv-x="1122" d="M74 483q0 117 34.5 212.5t98 163t154 103t200.5 35.5q111 0 201 -35.5t153.5 -103t98.5 -163t35 -212.5t-34 -211t-97.5 -159.5t-153.5 -101.5t-203 -36t-203 36t-153.5 101.5t-97 159.5t-33.5 211zM289 1393h276l131 -263h-200zM305 487q0 -147 72 -229t184 -82 q113 0 184.5 83t71.5 228q0 147 -69.5 229.5t-186.5 82.5t-186.5 -82.5t-69.5 -229.5z" />
<glyph unicode="&#xf3;" horiz-adv-x="1122" d="M74 483q0 117 34.5 212.5t98 163t154 103t200.5 35.5q111 0 201 -35.5t153.5 -103t98.5 -163t35 -212.5t-34 -211t-97.5 -159.5t-153.5 -101.5t-203 -36t-203 36t-153.5 101.5t-97 159.5t-33.5 211zM305 487q0 -147 72 -229t184 -82q113 0 184.5 83t71.5 228 q0 147 -69.5 229.5t-186.5 82.5t-186.5 -82.5t-69.5 -229.5zM434 1130l131 263h277l-207 -263h-201z" />
<glyph unicode="&#xf4;" horiz-adv-x="1122" d="M74 483q0 117 34.5 212.5t98 163t154 103t200.5 35.5q111 0 201 -35.5t153.5 -103t98.5 -163t35 -212.5t-34 -211t-97.5 -159.5t-153.5 -101.5t-203 -36t-203 36t-153.5 101.5t-97 159.5t-33.5 211zM248 1130l241 263h156l244 -263h-215l-109 103l-104 -103h-213z M305 487q0 -147 72 -229t184 -82q113 0 184.5 83t71.5 228q0 147 -69.5 229.5t-186.5 82.5t-186.5 -82.5t-69.5 -229.5z" />
<glyph unicode="&#xf5;" horiz-adv-x="1122" d="M74 483q0 117 34.5 212.5t98 163t154 103t200.5 35.5q111 0 201 -35.5t153.5 -103t98.5 -163t35 -212.5t-34 -211t-97.5 -159.5t-153.5 -101.5t-203 -36t-203 36t-153.5 101.5t-97 159.5t-33.5 211zM213 1161q6 25 23.5 62t46 70.5t68.5 57t93 23.5q39 0 71 -12t63 -29 q29 -16 56.5 -27.5t53.5 -11.5q35 0 56.5 28t31.5 60l148 -49q-16 -39 -36 -76.5t-47.5 -68.5t-63.5 -49.5t-85 -18.5q-41 0 -71.5 10.5t-63.5 26.5q-35 16 -64.5 30.5t-52.5 14.5q-35 0 -51 -28.5t-27 -59.5zM305 487q0 -147 72 -229t184 -82q113 0 184.5 83t71.5 228 q0 147 -69.5 229.5t-186.5 82.5t-186.5 -82.5t-69.5 -229.5z" />
<glyph unicode="&#xf6;" horiz-adv-x="1122" d="M74 483q0 117 34.5 212.5t98 163t154 103t200.5 35.5q111 0 201 -35.5t153.5 -103t98.5 -163t35 -212.5t-34 -211t-97.5 -159.5t-153.5 -101.5t-203 -36t-203 36t-153.5 101.5t-97 159.5t-33.5 211zM256 1130v242h221v-242h-221zM305 487q0 -147 72 -229t184 -82 q113 0 184.5 83t71.5 228q0 147 -69.5 229.5t-186.5 82.5t-186.5 -82.5t-69.5 -229.5zM639 1130v242h221v-242h-221z" />
<glyph unicode="&#xf7;" horiz-adv-x="1552" d="M88 379v217h1376v-217h-1376zM643 0v270h264v-270h-264zM643 705v270h264v-270h-264z" />
<glyph unicode="&#xf8;" horiz-adv-x="1122" d="M74 483q0 117 34.5 212.5t98 163t154 103t200.5 35.5q123 0 221 -47l113 146l162 -131l-111 -144q49 -66 76 -150.5t27 -187.5q0 -117 -34 -211t-97.5 -159.5t-153.5 -101.5t-203 -36q-125 0 -227 45l-90 -116l-168 131l92 121q-94 128 -94 327zM305 487q0 -74 19 -131 l329 426q-45 16 -92 17q-117 0 -186.5 -82.5t-69.5 -229.5zM465 195q43 -18 96 -19q113 0 184.5 83t71.5 228q0 39 -5 74t-15 64z" />
<glyph unicode="&#xf9;" horiz-adv-x="1097" d="M119 422v553h233v-518q0 -53 4 -101.5t21 -87.5q16 -39 52 -62.5t97 -23.5q111 0 160 76t49 195v522h234v-975h-234v125q-35 -61 -110.5 -105.5t-180.5 -44.5q-74 0 -135 24t-104 71q-23 27 -39 54.5t-26.5 67t-15.5 95t-5 135.5zM291 1393h276l131 -263h-200z" />
<glyph unicode="&#xfa;" horiz-adv-x="1097" d="M119 422v553h233v-518q0 -53 4 -101.5t21 -87.5q16 -39 52 -62.5t97 -23.5q111 0 160 76t49 195v522h234v-975h-234v125q-35 -61 -110.5 -105.5t-180.5 -44.5q-74 0 -135 24t-104 71q-23 27 -39 54.5t-26.5 67t-15.5 95t-5 135.5zM420 1130l131 263h276l-206 -263h-201z " />
<glyph unicode="&#xfb;" horiz-adv-x="1097" d="M119 422v553h233v-518q0 -53 4 -101.5t21 -87.5q16 -39 52 -62.5t97 -23.5q111 0 160 76t49 195v522h234v-975h-234v125q-35 -61 -110.5 -105.5t-180.5 -44.5q-74 0 -135 24t-104 71q-23 27 -39 54.5t-26.5 67t-15.5 95t-5 135.5zM231 1130l242 263h156l243 -263h-215 l-108 103l-105 -103h-213z" />
<glyph unicode="&#xfc;" horiz-adv-x="1097" d="M119 422v553h233v-518q0 -53 4 -101.5t21 -87.5q16 -39 52 -62.5t97 -23.5q111 0 160 76t49 195v522h234v-975h-234v125q-35 -61 -110.5 -105.5t-180.5 -44.5q-74 0 -135 24t-104 71q-23 27 -39 54.5t-26.5 67t-15.5 95t-5 135.5zM256 1130v242h221v-242h-221zM639 1130 v242h221v-242h-221z" />
<glyph unicode="&#xfd;" horiz-adv-x="929" d="M12 975h244l160 -526q10 -35 19 -70t18 -64q8 -35 16 -67h2q6 31 14 65q6 29 15.5 65t19.5 71l139 526h234l-326 -1092q-25 -82 -48 -131t-54 -82q-39 -41 -92.5 -58.5t-134.5 -17.5q-47 0 -76 4.5t-51 8.5v190q18 -4 37.5 -7t41.5 -3q76 0 107 31.5t49 91.5l16 59z M336 1130l131 263h276l-206 -263h-201z" />
<glyph unicode="&#xfe;" horiz-adv-x="1155" d="M129 -387v1780h233v-525q41 53 116 92t171 39q98 0 178 -37.5t136.5 -106.5t87 -164t30.5 -208q0 -111 -30.5 -204t-88 -160.5t-136.5 -105.5t-177 -38q-96 0 -167.5 36t-119.5 91v-489h-233zM352 487q0 -141 68.5 -225t179.5 -84q113 0 180.5 82t67.5 227 q0 147 -67.5 229.5t-180.5 82.5q-111 0 -179.5 -85.5t-68.5 -226.5z" />
<glyph unicode="&#xff;" horiz-adv-x="929" d="M12 975h244l160 -526q10 -35 19 -70t18 -64q8 -35 16 -67h2q6 31 14 65q6 29 15.5 65t19.5 71l139 526h234l-326 -1092q-25 -82 -48 -131t-54 -82q-39 -41 -92.5 -58.5t-134.5 -17.5q-47 0 -76 4.5t-51 8.5v190q18 -4 37.5 -7t41.5 -3q76 0 107 31.5t49 91.5l16 59z M160 1130v261h229v-261h-229zM551 1130v261h229v-261h-229z" />
<glyph unicode="&#x152;" horiz-adv-x="1947" d="M86 674q0 164 47 294t134 220t213 138t284 48q55 0 111.5 -5t111.5 -15h838v-207h-695v-344h633v-199h-633v-395h742v-209h-885q-53 -10 -111.5 -15t-113.5 -5q-154 0 -279 44t-213 132t-136 217t-48 301zM319 678q0 -123 35 -215t96.5 -153.5t143.5 -92.5t176 -31 q96 0 139 13v948q-80 12 -141 12q-102 0 -184 -28.5t-141.5 -88t-91.5 -150.5t-32 -214z" />
<glyph unicode="&#x153;" horiz-adv-x="1800" d="M74 483q0 117 34.5 212.5t98 163t154 103t200.5 35.5q229 0 359 -145q66 70 154.5 107.5t193.5 37.5q113 0 198.5 -39.5t144 -110.5t88.5 -166t30 -208q0 -12 -1.5 -24.5t-1.5 -24.5h-710q6 -49 24.5 -94t52 -79t82 -54.5t113.5 -20.5q66 0 114 19.5t82 46t54.5 55.5 t32.5 47l162 -123q-16 -25 -50 -66.5t-89.5 -81.5t-134.5 -69t-185 -29q-111 0 -199 37t-153 105q-66 -68 -157 -105t-204 -37t-203 36t-153.5 101.5t-97 160t-33.5 210.5zM305 487q0 -147 72 -229t184 -82q113 0 184.5 83t71.5 228q0 147 -69.5 229.5t-186.5 82.5 t-186.5 -82.5t-69.5 -229.5zM1022 598h475q-4 96 -67.5 154.5t-161.5 58.5q-49 0 -93.5 -16.5t-77 -46t-53 -68.5t-22.5 -82z" />
<glyph unicode="&#x178;" horiz-adv-x="1273" d="M4 1393h285l356 -596l363 596h282l-534 -824v-569h-246v569zM342 1524v260h229v-260h-229zM733 1524v260h230v-260h-230z" />
<glyph unicode="&#x2c6;" horiz-adv-x="1024" d="M190 1130l242 263h156l243 -263h-215l-108 103l-105 -103h-213z" />
<glyph unicode="&#x2dc;" horiz-adv-x="1024" d="M160 1161q6 25 23.5 62t46 70.5t68.5 57t93 23.5q39 0 71 -12t62 -29q29 -16 56.5 -27.5t54.5 -11.5q35 0 56.5 28t31.5 60l147 -49q-16 -39 -35.5 -76.5t-47 -68.5t-63.5 -49.5t-85 -18.5q-41 0 -71.5 10.5t-63.5 26.5q-35 16 -64.5 30.5t-52.5 14.5q-35 0 -51.5 -28.5 t-26.5 -59.5z" />
<glyph unicode="&#x2000;" horiz-adv-x="954" />
<glyph unicode="&#x2001;" horiz-adv-x="1909" />
<glyph unicode="&#x2002;" horiz-adv-x="954" />
<glyph unicode="&#x2003;" horiz-adv-x="1909" />
<glyph unicode="&#x2004;" horiz-adv-x="636" />
<glyph unicode="&#x2005;" horiz-adv-x="477" />
<glyph unicode="&#x2006;" horiz-adv-x="318" />
<glyph unicode="&#x2007;" horiz-adv-x="318" />
<glyph unicode="&#x2008;" horiz-adv-x="238" />
<glyph unicode="&#x2009;" horiz-adv-x="381" />
<glyph unicode="&#x200a;" horiz-adv-x="106" />
<glyph unicode="&#x2010;" horiz-adv-x="833" d="M125 438v221h584v-221h-584z" />
<glyph unicode="&#x2011;" horiz-adv-x="833" d="M125 438v221h584v-221h-584z" />
<glyph unicode="&#x2012;" horiz-adv-x="833" d="M125 438v221h584v-221h-584z" />
<glyph unicode="&#x2013;" horiz-adv-x="1284" d="M121 432v227h1042v-227h-1042z" />
<glyph unicode="&#x2014;" horiz-adv-x="1673" d="M121 432v227h1431v-227h-1431z" />
<glyph unicode="&#x2018;" horiz-adv-x="483" d="M106 842v209q0 29 1.5 60.5t3.5 55.5q6 55 20 100.5t43 77t77 49t120 19.5v-133q-57 -4 -87 -32.5t-30 -112.5v-25h117v-268h-265z" />
<glyph unicode="&#x2019;" horiz-adv-x="475" d="M115 821v133q57 4 86.5 33t29.5 113v24h-116v269h264v-209q0 -29 -1 -60.5t-3 -56.5q-6 -55 -20.5 -100t-43 -77t-77 -49.5t-119.5 -19.5z" />
<glyph unicode="&#x201a;" horiz-adv-x="493" d="M115 0v268h264v-209q0 -29 -1 -60.5t-3 -55.5q-6 -55 -20.5 -100.5t-43 -77t-77 -49t-119.5 -19.5v133q57 4 86.5 32.5t29.5 112.5v25h-116z" />
<glyph unicode="&#x201c;" horiz-adv-x="851" d="M106 842v209q0 29 1.5 60.5t3.5 55.5q6 55 20 100.5t43 77t77 49t120 19.5v-133q-57 -4 -87 -32.5t-30 -112.5v-25h117v-268h-265zM475 842v209q0 29 1 60.5t3 55.5q6 55 20.5 100.5t43 77t77 49t119.5 19.5v-133q-57 -4 -86.5 -32.5t-29.5 -112.5v-25h116v-268h-264z " />
<glyph unicode="&#x201d;" horiz-adv-x="843" d="M115 821v133q57 4 86.5 33t29.5 113v24h-116v269h264v-209q0 -29 -1 -60.5t-3 -56.5q-6 -55 -20.5 -100t-43 -77t-77 -49.5t-119.5 -19.5zM483 821v133q57 4 87 33t30 113v24h-117v269h265v-209q0 -29 -1.5 -60.5t-3.5 -56.5q-6 -55 -20 -100t-43 -77t-77 -49.5 t-120 -19.5z" />
<glyph unicode="&#x201e;" horiz-adv-x="862" d="M115 0v268h264v-209q0 -29 -1 -60.5t-3 -55.5q-6 -55 -20.5 -100.5t-43 -77t-77 -49t-119.5 -19.5v133q57 4 86.5 32.5t29.5 112.5v25h-116zM483 0v268h265v-209q0 -29 -1.5 -60.5t-3.5 -55.5q-6 -55 -20 -100.5t-43 -77t-77 -49t-120 -19.5v133q57 4 87 32.5t30 112.5 v25h-117z" />
<glyph unicode="&#x2022;" horiz-adv-x="864" d="M125 682q0 63 24.5 120.5t65.5 98.5t97.5 65.5t119.5 24.5t119.5 -24.5t98.5 -65.5t65.5 -98.5t23.5 -120.5t-23.5 -119.5t-65.5 -97.5t-98 -65.5t-120 -24.5q-63 0 -119.5 24.5t-97.5 65.5t-65.5 97.5t-24.5 119.5z" />
<glyph unicode="&#x2026;" horiz-adv-x="1859" d="M113 0v270h264v-270h-264zM797 0v270h264v-270h-264zM1483 0v270h264v-270h-264z" />
<glyph unicode="&#x202f;" horiz-adv-x="381" />
<glyph unicode="&#x2039;" horiz-adv-x="540" d="M92 446v297l332 285v-270l-195 -156l195 -168v-266z" />
<glyph unicode="&#x203a;" horiz-adv-x="540" d="M117 168v266l194 168l-194 156v270l332 -285v-297z" />
<glyph unicode="&#x205f;" horiz-adv-x="477" />
<glyph unicode="&#x20ac;" horiz-adv-x="1265" d="M61 412l68 200h94v129h-155l67 201h111q16 92 53 179t96.5 153.5t145.5 106.5t200 40q90 0 163 -26.5t128 -72.5t93 -107.5t59 -131.5l-201 -118q-23 104 -80 170.5t-162 66.5q-55 0 -96 -20.5t-69.5 -55t-48 -82t-27.5 -102.5h444l-67 -201h-398v-129h359l-68 -200h-262 q23 -94 74 -155.5t159 -61.5q51 0 89 16t66 44t46.5 65.5t30.5 80.5l219 -82q-23 -72 -59.5 -135t-92 -109t-131 -73t-174.5 -27q-109 0 -190.5 33t-141 91.5t-96.5 138t-55 174.5h-191z" />
<glyph unicode="&#x2122;" horiz-adv-x="1798" d="M102 1223v170h674v-170h-246v-707h-182v707h-246zM850 512v881h215l113 -318q16 -49 30.5 -94t24.5 -80q12 -39 22 -74h5q8 35 27.5 107t41.5 141l105 318h221v-881h-172v324v70.5t2 64.5q0 35 2 67h-4q-10 -33 -19 -67q-10 -29 -20 -66t-21 -71l-98 -322h-139l-111 344 q-10 29 -18 61.5t-17 61.5q-8 33 -16 63h-4q0 -39 2 -75q0 -31 1 -65t1 -56v-334h-174z" />
<glyph unicode="&#xe000;" horiz-adv-x="972" d="M0 0v973h973v-973h-973z" />
</font>
</defs>
</svg>
